0
SECTION
2
HEADER
9
$ACADVER
1
AC1009
9
$INSUNITS
70
4
0
ENDSEC
0
SECTION
2
TABLES
0
TABLE
2
LAYER
70
15
0
LAYER
2
01_GRID_AXIS
70
0
62
1
6
CENTER
0
LAYER
2
02_COLUMNS
70
0
62
7
6
CONTINUOUS
0
LAYER
2
03_WALLS
70
0
62
7
6
CONTINUOUS
0
LAYER
2
04_AISLES
70
0
62
2
6
DASHED
0
LAYER
2
05_EQUIPMENT_1F
70
0
62
4
6
CONTINUOUS
0
LAYER
2
06_DIMENSIONS
70
0
62
3
6
CONTINUOUS
0
LAYER
2
07_TEXT
70
0
62
7
6
CONTINUOUS
0
LAYER
2
08_TITLE_BLOCK
70
0
62
6
6
CONTINUOUS
0
LAYER
2
09_2F_MEZZANINE
70
0
62
5
6
CONTINUOUS
0
LAYER
2
10_2F_HANDRAIL
70
0
62
2
6
DASHED
0
LAYER
2
11_FLOW_ROUTES
70
0
62
1
6
DASHED
0
LAYER
2
12_ARCH_DOORS_WINDOWS
70
0
62
4
6
CONTINUOUS
0
LAYER
2
13_FURNITURE
70
0
62
8
6
CONTINUOUS
0
ENDTAB
0
ENDSEC
0
SECTION
2
BLOCKS
0
BLOCK
2
BLK_COLUMN
70
0
10
0.0
20
0.0
30
0.0
3
BLK_COLUMN
0
POLYLINE
8
02_COLUMNS
66
1
70
1
0
VERTEX
8
02_COLUMNS
10
-250.0
20
-250.0
30
0.0
0
VERTEX
8
02_COLUMNS
10
250.0
20
-250.0
30
0.0
0
VERTEX
8
02_COLUMNS
10
250.0
20
250.0
30
0.0
0
VERTEX
8
02_COLUMNS
10
-250.0
20
250.0
30
0.0
0
SEQEND
0
ENDBLK
0
ENDSEC
0
SECTION
2
ENTITIES
0
LINE
8
01_GRID_AXIS
10
0.0
20
-3000.0
30
0.0
11
0.0
21
68000.0
31
0.0
0
CIRCLE
8
01_GRID_AXIS
10
0.0
20
-4000.0
30
0.0
40
800.0
0
TEXT
8
07_TEXT
10
0.0
20
-4000.0
30
0.0
40
500.0
1
X1
72
1
11
0.0
21
-4000.0
31
0.0
0
LINE
8
01_GRID_AXIS
10
5000.0
20
-3000.0
30
0.0
11
5000.0
21
68000.0
31
0.0
0
CIRCLE
8
01_GRID_AXIS
10
5000.0
20
-4000.0
30
0.0
40
800.0
0
TEXT
8
07_TEXT
10
5000.0
20
-4000.0
30
0.0
40
500.0
1
X2
72
1
11
5000.0
21
-4000.0
31
0.0
0
LINE
8
01_GRID_AXIS
10
10000.0
20
-3000.0
30
0.0
11
10000.0
21
68000.0
31
0.0
0
CIRCLE
8
01_GRID_AXIS
10
10000.0
20
-4000.0
30
0.0
40
800.0
0
TEXT
8
07_TEXT
10
10000.0
20
-4000.0
30
0.0
40
500.0
1
X3
72
1
11
10000.0
21
-4000.0
31
0.0
0
LINE
8
01_GRID_AXIS
10
15000.0
20
-3000.0
30
0.0
11
15000.0
21
68000.0
31
0.0
0
CIRCLE
8
01_GRID_AXIS
10
15000.0
20
-4000.0
30
0.0
40
800.0
0
TEXT
8
07_TEXT
10
15000.0
20
-4000.0
30
0.0
40
500.0
1
X4
72
1
11
15000.0
21
-4000.0
31
0.0
0
LINE
8
01_GRID_AXIS
10
20000.0
20
-3000.0
30
0.0
11
20000.0
21
68000.0
31
0.0
0
CIRCLE
8
01_GRID_AXIS
10
20000.0
20
-4000.0
30
0.0
40
800.0
0
TEXT
8
07_TEXT
10
20000.0
20
-4000.0
30
0.0
40
500.0
1
X5
72
1
11
20000.0
21
-4000.0
31
0.0
0
LINE
8
01_GRID_AXIS
10
25000.0
20
-3000.0
30
0.0
11
25000.0
21
68000.0
31
0.0
0
CIRCLE
8
01_GRID_AXIS
10
25000.0
20
-4000.0
30
0.0
40
800.0
0
TEXT
8
07_TEXT
10
25000.0
20
-4000.0
30
0.0
40
500.0
1
X6
72
1
11
25000.0
21
-4000.0
31
0.0
0
LINE
8
01_GRID_AXIS
10
30000.0
20
-3000.0
30
0.0
11
30000.0
21
68000.0
31
0.0
0
CIRCLE
8
01_GRID_AXIS
10
30000.0
20
-4000.0
30
0.0
40
800.0
0
TEXT
8
07_TEXT
10
30000.0
20
-4000.0
30
0.0
40
500.0
1
X7
72
1
11
30000.0
21
-4000.0
31
0.0
0
LINE
8
01_GRID_AXIS
10
35000.0
20
-3000.0
30
0.0
11
35000.0
21
68000.0
31
0.0
0
CIRCLE
8
01_GRID_AXIS
10
35000.0
20
-4000.0
30
0.0
40
800.0
0
TEXT
8
07_TEXT
10
35000.0
20
-4000.0
30
0.0
40
500.0
1
X8
72
1
11
35000.0
21
-4000.0
31
0.0
0
LINE
8
01_GRID_AXIS
10
40000.0
20
-3000.0
30
0.0
11
40000.0
21
68000.0
31
0.0
0
CIRCLE
8
01_GRID_AXIS
10
40000.0
20
-4000.0
30
0.0
40
800.0
0
TEXT
8
07_TEXT
10
40000.0
20
-4000.0
30
0.0
40
500.0
1
X9
72
1
11
40000.0
21
-4000.0
31
0.0
0
LINE
8
01_GRID_AXIS
10
45000.0
20
-3000.0
30
0.0
11
45000.0
21
68000.0
31
0.0
0
CIRCLE
8
01_GRID_AXIS
10
45000.0
20
-4000.0
30
0.0
40
800.0
0
TEXT
8
07_TEXT
10
45000.0
20
-4000.0
30
0.0
40
500.0
1
X10
72
1
11
45000.0
21
-4000.0
31
0.0
0
LINE
8
01_GRID_AXIS
10
50000.0
20
-3000.0
30
0.0
11
50000.0
21
68000.0
31
0.0
0
CIRCLE
8
01_GRID_AXIS
10
50000.0
20
-4000.0
30
0.0
40
800.0
0
TEXT
8
07_TEXT
10
50000.0
20
-4000.0
30
0.0
40
500.0
1
X11
72
1
11
50000.0
21
-4000.0
31
0.0
0
LINE
8
01_GRID_AXIS
10
55000.0
20
-3000.0
30
0.0
11
55000.0
21
68000.0
31
0.0
0
CIRCLE
8
01_GRID_AXIS
10
55000.0
20
-4000.0
30
0.0
40
800.0
0
TEXT
8
07_TEXT
10
55000.0
20
-4000.0
30
0.0
40
500.0
1
X12
72
1
11
55000.0
21
-4000.0
31
0.0
0
LINE
8
01_GRID_AXIS
10
60000.0
20
-3000.0
30
0.0
11
60000.0
21
68000.0
31
0.0
0
CIRCLE
8
01_GRID_AXIS
10
60000.0
20
-4000.0
30
0.0
40
800.0
0
TEXT
8
07_TEXT
10
60000.0
20
-4000.0
30
0.0
40
500.0
1
X13
72
1
11
60000.0
21
-4000.0
31
0.0
0
LINE
8
01_GRID_AXIS
10
65000.0
20
-3000.0
30
0.0
11
65000.0
21
68000.0
31
0.0
0
CIRCLE
8
01_GRID_AXIS
10
65000.0
20
-4000.0
30
0.0
40
800.0
0
TEXT
8
07_TEXT
10
65000.0
20
-4000.0
30
0.0
40
500.0
1
X14
72
1
11
65000.0
21
-4000.0
31
0.0
0
LINE
8
01_GRID_AXIS
10
70000.0
20
-3000.0
30
0.0
11
70000.0
21
68000.0
31
0.0
0
CIRCLE
8
01_GRID_AXIS
10
70000.0
20
-4000.0
30
0.0
40
800.0
0
TEXT
8
07_TEXT
10
70000.0
20
-4000.0
30
0.0
40
500.0
1
X15
72
1
11
70000.0
21
-4000.0
31
0.0
0
LINE
8
01_GRID_AXIS
10
75000.0
20
-3000.0
30
0.0
11
75000.0
21
68000.0
31
0.0
0
CIRCLE
8
01_GRID_AXIS
10
75000.0
20
-4000.0
30
0.0
40
800.0
0
TEXT
8
07_TEXT
10
75000.0
20
-4000.0
30
0.0
40
500.0
1
X16
72
1
11
75000.0
21
-4000.0
31
0.0
0
LINE
8
01_GRID_AXIS
10
80000.0
20
-3000.0
30
0.0
11
80000.0
21
68000.0
31
0.0
0
CIRCLE
8
01_GRID_AXIS
10
80000.0
20
-4000.0
30
0.0
40
800.0
0
TEXT
8
07_TEXT
10
80000.0
20
-4000.0
30
0.0
40
500.0
1
X17
72
1
11
80000.0
21
-4000.0
31
0.0
0
LINE
8
01_GRID_AXIS
10
85000.0
20
-3000.0
30
0.0
11
85000.0
21
68000.0
31
0.0
0
CIRCLE
8
01_GRID_AXIS
10
85000.0
20
-4000.0
30
0.0
40
800.0
0
TEXT
8
07_TEXT
10
85000.0
20
-4000.0
30
0.0
40
500.0
1
X18
72
1
11
85000.0
21
-4000.0
31
0.0
0
LINE
8
01_GRID_AXIS
10
90000.0
20
-3000.0
30
0.0
11
90000.0
21
68000.0
31
0.0
0
CIRCLE
8
01_GRID_AXIS
10
90000.0
20
-4000.0
30
0.0
40
800.0
0
TEXT
8
07_TEXT
10
90000.0
20
-4000.0
30
0.0
40
500.0
1
X19
72
1
11
90000.0
21
-4000.0
31
0.0
0
LINE
8
01_GRID_AXIS
10
95000.0
20
-3000.0
30
0.0
11
95000.0
21
68000.0
31
0.0
0
CIRCLE
8
01_GRID_AXIS
10
95000.0
20
-4000.0
30
0.0
40
800.0
0
TEXT
8
07_TEXT
10
95000.0
20
-4000.0
30
0.0
40
500.0
1
X20
72
1
11
95000.0
21
-4000.0
31
0.0
0
LINE
8
01_GRID_AXIS
10
100000.0
20
-3000.0
30
0.0
11
100000.0
21
68000.0
31
0.0
0
CIRCLE
8
01_GRID_AXIS
10
100000.0
20
-4000.0
30
0.0
40
800.0
0
TEXT
8
07_TEXT
10
100000.0
20
-4000.0
30
0.0
40
500.0
1
X21
72
1
11
100000.0
21
-4000.0
31
0.0
0
LINE
8
01_GRID_AXIS
10
-3000.0
20
0.0
30
0.0
11
103000.0
21
0.0
31
0.0
0
CIRCLE
8
01_GRID_AXIS
10
-4000.0
20
0.0
30
0.0
40
800.0
0
TEXT
8
07_TEXT
10
-4000.0
20
0.0
30
0.0
40
500.0
1
Y1
72
1
11
-4000.0
21
0.0
31
0.0
0
LINE
8
01_GRID_AXIS
10
-3000.0
20
5000.0
30
0.0
11
103000.0
21
5000.0
31
0.0
0
CIRCLE
8
01_GRID_AXIS
10
-4000.0
20
5000.0
30
0.0
40
800.0
0
TEXT
8
07_TEXT
10
-4000.0
20
5000.0
30
0.0
40
500.0
1
Y2
72
1
11
-4000.0
21
5000.0
31
0.0
0
LINE
8
01_GRID_AXIS
10
-3000.0
20
10000.0
30
0.0
11
103000.0
21
10000.0
31
0.0
0
CIRCLE
8
01_GRID_AXIS
10
-4000.0
20
10000.0
30
0.0
40
800.0
0
TEXT
8
07_TEXT
10
-4000.0
20
10000.0
30
0.0
40
500.0
1
Y3
72
1
11
-4000.0
21
10000.0
31
0.0
0
LINE
8
01_GRID_AXIS
10
-3000.0
20
15000.0
30
0.0
11
103000.0
21
15000.0
31
0.0
0
CIRCLE
8
01_GRID_AXIS
10
-4000.0
20
15000.0
30
0.0
40
800.0
0
TEXT
8
07_TEXT
10
-4000.0
20
15000.0
30
0.0
40
500.0
1
Y4
72
1
11
-4000.0
21
15000.0
31
0.0
0
LINE
8
01_GRID_AXIS
10
-3000.0
20
20000.0
30
0.0
11
103000.0
21
20000.0
31
0.0
0
CIRCLE
8
01_GRID_AXIS
10
-4000.0
20
20000.0
30
0.0
40
800.0
0
TEXT
8
07_TEXT
10
-4000.0
20
20000.0
30
0.0
40
500.0
1
Y5
72
1
11
-4000.0
21
20000.0
31
0.0
0
LINE
8
01_GRID_AXIS
10
-3000.0
20
25000.0
30
0.0
11
103000.0
21
25000.0
31
0.0
0
CIRCLE
8
01_GRID_AXIS
10
-4000.0
20
25000.0
30
0.0
40
800.0
0
TEXT
8
07_TEXT
10
-4000.0
20
25000.0
30
0.0
40
500.0
1
Y6
72
1
11
-4000.0
21
25000.0
31
0.0
0
LINE
8
01_GRID_AXIS
10
-3000.0
20
30000.0
30
0.0
11
103000.0
21
30000.0
31
0.0
0
CIRCLE
8
01_GRID_AXIS
10
-4000.0
20
30000.0
30
0.0
40
800.0
0
TEXT
8
07_TEXT
10
-4000.0
20
30000.0
30
0.0
40
500.0
1
Y7
72
1
11
-4000.0
21
30000.0
31
0.0
0
LINE
8
01_GRID_AXIS
10
-3000.0
20
35000.0
30
0.0
11
103000.0
21
35000.0
31
0.0
0
CIRCLE
8
01_GRID_AXIS
10
-4000.0
20
35000.0
30
0.0
40
800.0
0
TEXT
8
07_TEXT
10
-4000.0
20
35000.0
30
0.0
40
500.0
1
Y8
72
1
11
-4000.0
21
35000.0
31
0.0
0
LINE
8
01_GRID_AXIS
10
-3000.0
20
40000.0
30
0.0
11
103000.0
21
40000.0
31
0.0
0
CIRCLE
8
01_GRID_AXIS
10
-4000.0
20
40000.0
30
0.0
40
800.0
0
TEXT
8
07_TEXT
10
-4000.0
20
40000.0
30
0.0
40
500.0
1
Y9
72
1
11
-4000.0
21
40000.0
31
0.0
0
LINE
8
01_GRID_AXIS
10
-3000.0
20
45000.0
30
0.0
11
103000.0
21
45000.0
31
0.0
0
CIRCLE
8
01_GRID_AXIS
10
-4000.0
20
45000.0
30
0.0
40
800.0
0
TEXT
8
07_TEXT
10
-4000.0
20
45000.0
30
0.0
40
500.0
1
Y10
72
1
11
-4000.0
21
45000.0
31
0.0
0
LINE
8
01_GRID_AXIS
10
-3000.0
20
50000.0
30
0.0
11
103000.0
21
50000.0
31
0.0
0
CIRCLE
8
01_GRID_AXIS
10
-4000.0
20
50000.0
30
0.0
40
800.0
0
TEXT
8
07_TEXT
10
-4000.0
20
50000.0
30
0.0
40
500.0
1
Y11
72
1
11
-4000.0
21
50000.0
31
0.0
0
INSERT
8
02_COLUMNS
2
BLK_COLUMN
10
0.0
20
0.0
30
0.0
0
INSERT
8
02_COLUMNS
2
BLK_COLUMN
10
0.0
20
5000.0
30
0.0
0
INSERT
8
02_COLUMNS
2
BLK_COLUMN
10
0.0
20
10000.0
30
0.0
0
INSERT
8
02_COLUMNS
2
BLK_COLUMN
10
0.0
20
15000.0
30
0.0
0
INSERT
8
02_COLUMNS
2
BLK_COLUMN
10
0.0
20
20000.0
30
0.0
0
INSERT
8
02_COLUMNS
2
BLK_COLUMN
10
0.0
20
25000.0
30
0.0
0
INSERT
8
02_COLUMNS
2
BLK_COLUMN
10
0.0
20
30000.0
30
0.0
0
INSERT
8
02_COLUMNS
2
BLK_COLUMN
10
0.0
20
35000.0
30
0.0
0
INSERT
8
02_COLUMNS
2
BLK_COLUMN
10
0.0
20
40000.0
30
0.0
0
INSERT
8
02_COLUMNS
2
BLK_COLUMN
10
0.0
20
45000.0
30
0.0
0
INSERT
8
02_COLUMNS
2
BLK_COLUMN
10
0.0
20
50000.0
30
0.0
0
INSERT
8
02_COLUMNS
2
BLK_COLUMN
10
5000.0
20
0.0
30
0.0
0
INSERT
8
02_COLUMNS
2
BLK_COLUMN
10
5000.0
20
20000.0
30
0.0
0
INSERT
8
02_COLUMNS
2
BLK_COLUMN
10
5000.0
20
25000.0
30
0.0
0
INSERT
8
02_COLUMNS
2
BLK_COLUMN
10
5000.0
20
30000.0
30
0.0
0
INSERT
8
02_COLUMNS
2
BLK_COLUMN
10
5000.0
20
35000.0
30
0.0
0
INSERT
8
02_COLUMNS
2
BLK_COLUMN
10
5000.0
20
40000.0
30
0.0
0
INSERT
8
02_COLUMNS
2
BLK_COLUMN
10
5000.0
20
45000.0
30
0.0
0
INSERT
8
02_COLUMNS
2
BLK_COLUMN
10
5000.0
20
50000.0
30
0.0
0
INSERT
8
02_COLUMNS
2
BLK_COLUMN
10
10000.0
20
0.0
30
0.0
0
INSERT
8
02_COLUMNS
2
BLK_COLUMN
10
10000.0
20
20000.0
30
0.0
0
INSERT
8
02_COLUMNS
2
BLK_COLUMN
10
10000.0
20
25000.0
30
0.0
0
INSERT
8
02_COLUMNS
2
BLK_COLUMN
10
10000.0
20
30000.0
30
0.0
0
INSERT
8
02_COLUMNS
2
BLK_COLUMN
10
10000.0
20
35000.0
30
0.0
0
INSERT
8
02_COLUMNS
2
BLK_COLUMN
10
10000.0
20
40000.0
30
0.0
0
INSERT
8
02_COLUMNS
2
BLK_COLUMN
10
10000.0
20
45000.0
30
0.0
0
INSERT
8
02_COLUMNS
2
BLK_COLUMN
10
10000.0
20
50000.0
30
0.0
0
INSERT
8
02_COLUMNS
2
BLK_COLUMN
10
15000.0
20
0.0
30
0.0
0
INSERT
8
02_COLUMNS
2
BLK_COLUMN
10
15000.0
20
20000.0
30
0.0
0
INSERT
8
02_COLUMNS
2
BLK_COLUMN
10
15000.0
20
25000.0
30
0.0
0
INSERT
8
02_COLUMNS
2
BLK_COLUMN
10
15000.0
20
30000.0
30
0.0
0
INSERT
8
02_COLUMNS
2
BLK_COLUMN
10
15000.0
20
35000.0
30
0.0
0
INSERT
8
02_COLUMNS
2
BLK_COLUMN
10
15000.0
20
40000.0
30
0.0
0
INSERT
8
02_COLUMNS
2
BLK_COLUMN
10
15000.0
20
45000.0
30
0.0
0
INSERT
8
02_COLUMNS
2
BLK_COLUMN
10
15000.0
20
50000.0
30
0.0
0
INSERT
8
02_COLUMNS
2
BLK_COLUMN
10
20000.0
20
0.0
30
0.0
0
INSERT
8
02_COLUMNS
2
BLK_COLUMN
10
20000.0
20
20000.0
30
0.0
0
INSERT
8
02_COLUMNS
2
BLK_COLUMN
10
20000.0
20
25000.0
30
0.0
0
INSERT
8
02_COLUMNS
2
BLK_COLUMN
10
20000.0
20
30000.0
30
0.0
0
INSERT
8
02_COLUMNS
2
BLK_COLUMN
10
20000.0
20
35000.0
30
0.0
0
INSERT
8
02_COLUMNS
2
BLK_COLUMN
10
20000.0
20
40000.0
30
0.0
0
INSERT
8
02_COLUMNS
2
BLK_COLUMN
10
20000.0
20
45000.0
30
0.0
0
INSERT
8
02_COLUMNS
2
BLK_COLUMN
10
20000.0
20
50000.0
30
0.0
0
INSERT
8
02_COLUMNS
2
BLK_COLUMN
10
25000.0
20
0.0
30
0.0
0
INSERT
8
02_COLUMNS
2
BLK_COLUMN
10
25000.0
20
20000.0
30
0.0
0
INSERT
8
02_COLUMNS
2
BLK_COLUMN
10
25000.0
20
25000.0
30
0.0
0
INSERT
8
02_COLUMNS
2
BLK_COLUMN
10
25000.0
20
30000.0
30
0.0
0
INSERT
8
02_COLUMNS
2
BLK_COLUMN
10
25000.0
20
35000.0
30
0.0
0
INSERT
8
02_COLUMNS
2
BLK_COLUMN
10
25000.0
20
40000.0
30
0.0
0
INSERT
8
02_COLUMNS
2
BLK_COLUMN
10
25000.0
20
45000.0
30
0.0
0
INSERT
8
02_COLUMNS
2
BLK_COLUMN
10
25000.0
20
50000.0
30
0.0
0
INSERT
8
02_COLUMNS
2
BLK_COLUMN
10
30000.0
20
0.0
30
0.0
0
INSERT
8
02_COLUMNS
2
BLK_COLUMN
10
30000.0
20
20000.0
30
0.0
0
INSERT
8
02_COLUMNS
2
BLK_COLUMN
10
30000.0
20
25000.0
30
0.0
0
INSERT
8
02_COLUMNS
2
BLK_COLUMN
10
30000.0
20
30000.0
30
0.0
0
INSERT
8
02_COLUMNS
2
BLK_COLUMN
10
30000.0
20
35000.0
30
0.0
0
INSERT
8
02_COLUMNS
2
BLK_COLUMN
10
30000.0
20
40000.0
30
0.0
0
INSERT
8
02_COLUMNS
2
BLK_COLUMN
10
30000.0
20
45000.0
30
0.0
0
INSERT
8
02_COLUMNS
2
BLK_COLUMN
10
30000.0
20
50000.0
30
0.0
0
INSERT
8
02_COLUMNS
2
BLK_COLUMN
10
35000.0
20
0.0
30
0.0
0
INSERT
8
02_COLUMNS
2
BLK_COLUMN
10
35000.0
20
5000.0
30
0.0
0
INSERT
8
02_COLUMNS
2
BLK_COLUMN
10
35000.0
20
10000.0
30
0.0
0
INSERT
8
02_COLUMNS
2
BLK_COLUMN
10
35000.0
20
15000.0
30
0.0
0
INSERT
8
02_COLUMNS
2
BLK_COLUMN
10
35000.0
20
20000.0
30
0.0
0
INSERT
8
02_COLUMNS
2
BLK_COLUMN
10
35000.0
20
25000.0
30
0.0
0
INSERT
8
02_COLUMNS
2
BLK_COLUMN
10
35000.0
20
30000.0
30
0.0
0
INSERT
8
02_COLUMNS
2
BLK_COLUMN
10
35000.0
20
35000.0
30
0.0
0
INSERT
8
02_COLUMNS
2
BLK_COLUMN
10
35000.0
20
40000.0
30
0.0
0
INSERT
8
02_COLUMNS
2
BLK_COLUMN
10
35000.0
20
45000.0
30
0.0
0
INSERT
8
02_COLUMNS
2
BLK_COLUMN
10
35000.0
20
50000.0
30
0.0
0
INSERT
8
02_COLUMNS
2
BLK_COLUMN
10
40000.0
20
0.0
30
0.0
0
INSERT
8
02_COLUMNS
2
BLK_COLUMN
10
40000.0
20
5000.0
30
0.0
0
INSERT
8
02_COLUMNS
2
BLK_COLUMN
10
40000.0
20
10000.0
30
0.0
0
INSERT
8
02_COLUMNS
2
BLK_COLUMN
10
40000.0
20
15000.0
30
0.0
0
INSERT
8
02_COLUMNS
2
BLK_COLUMN
10
40000.0
20
20000.0
30
0.0
0
INSERT
8
02_COLUMNS
2
BLK_COLUMN
10
40000.0
20
25000.0
30
0.0
0
INSERT
8
02_COLUMNS
2
BLK_COLUMN
10
40000.0
20
30000.0
30
0.0
0
INSERT
8
02_COLUMNS
2
BLK_COLUMN
10
40000.0
20
35000.0
30
0.0
0
INSERT
8
02_COLUMNS
2
BLK_COLUMN
10
40000.0
20
40000.0
30
0.0
0
INSERT
8
02_COLUMNS
2
BLK_COLUMN
10
40000.0
20
45000.0
30
0.0
0
INSERT
8
02_COLUMNS
2
BLK_COLUMN
10
40000.0
20
50000.0
30
0.0
0
INSERT
8
02_COLUMNS
2
BLK_COLUMN
10
45000.0
20
0.0
30
0.0
0
INSERT
8
02_COLUMNS
2
BLK_COLUMN
10
45000.0
20
5000.0
30
0.0
0
INSERT
8
02_COLUMNS
2
BLK_COLUMN
10
45000.0
20
10000.0
30
0.0
0
INSERT
8
02_COLUMNS
2
BLK_COLUMN
10
45000.0
20
15000.0
30
0.0
0
INSERT
8
02_COLUMNS
2
BLK_COLUMN
10
45000.0
20
20000.0
30
0.0
0
INSERT
8
02_COLUMNS
2
BLK_COLUMN
10
45000.0
20
25000.0
30
0.0
0
INSERT
8
02_COLUMNS
2
BLK_COLUMN
10
45000.0
20
30000.0
30
0.0
0
INSERT
8
02_COLUMNS
2
BLK_COLUMN
10
45000.0
20
35000.0
30
0.0
0
INSERT
8
02_COLUMNS
2
BLK_COLUMN
10
45000.0
20
40000.0
30
0.0
0
INSERT
8
02_COLUMNS
2
BLK_COLUMN
10
45000.0
20
45000.0
30
0.0
0
INSERT
8
02_COLUMNS
2
BLK_COLUMN
10
45000.0
20
50000.0
30
0.0
0
INSERT
8
02_COLUMNS
2
BLK_COLUMN
10
50000.0
20
0.0
30
0.0
0
INSERT
8
02_COLUMNS
2
BLK_COLUMN
10
50000.0
20
5000.0
30
0.0
0
INSERT
8
02_COLUMNS
2
BLK_COLUMN
10
50000.0
20
10000.0
30
0.0
0
INSERT
8
02_COLUMNS
2
BLK_COLUMN
10
50000.0
20
15000.0
30
0.0
0
INSERT
8
02_COLUMNS
2
BLK_COLUMN
10
50000.0
20
20000.0
30
0.0
0
INSERT
8
02_COLUMNS
2
BLK_COLUMN
10
50000.0
20
25000.0
30
0.0
0
INSERT
8
02_COLUMNS
2
BLK_COLUMN
10
50000.0
20
30000.0
30
0.0
0
INSERT
8
02_COLUMNS
2
BLK_COLUMN
10
50000.0
20
35000.0
30
0.0
0
INSERT
8
02_COLUMNS
2
BLK_COLUMN
10
50000.0
20
40000.0
30
0.0
0
INSERT
8
02_COLUMNS
2
BLK_COLUMN
10
50000.0
20
45000.0
30
0.0
0
INSERT
8
02_COLUMNS
2
BLK_COLUMN
10
50000.0
20
50000.0
30
0.0
0
INSERT
8
02_COLUMNS
2
BLK_COLUMN
10
55000.0
20
0.0
30
0.0
0
INSERT
8
02_COLUMNS
2
BLK_COLUMN
10
55000.0
20
5000.0
30
0.0
0
INSERT
8
02_COLUMNS
2
BLK_COLUMN
10
55000.0
20
10000.0
30
0.0
0
INSERT
8
02_COLUMNS
2
BLK_COLUMN
10
55000.0
20
15000.0
30
0.0
0
INSERT
8
02_COLUMNS
2
BLK_COLUMN
10
55000.0
20
20000.0
30
0.0
0
INSERT
8
02_COLUMNS
2
BLK_COLUMN
10
55000.0
20
25000.0
30
0.0
0
INSERT
8
02_COLUMNS
2
BLK_COLUMN
10
55000.0
20
30000.0
30
0.0
0
INSERT
8
02_COLUMNS
2
BLK_COLUMN
10
55000.0
20
35000.0
30
0.0
0
INSERT
8
02_COLUMNS
2
BLK_COLUMN
10
55000.0
20
40000.0
30
0.0
0
INSERT
8
02_COLUMNS
2
BLK_COLUMN
10
55000.0
20
45000.0
30
0.0
0
INSERT
8
02_COLUMNS
2
BLK_COLUMN
10
55000.0
20
50000.0
30
0.0
0
INSERT
8
02_COLUMNS
2
BLK_COLUMN
10
60000.0
20
0.0
30
0.0
0
INSERT
8
02_COLUMNS
2
BLK_COLUMN
10
60000.0
20
5000.0
30
0.0
0
INSERT
8
02_COLUMNS
2
BLK_COLUMN
10
60000.0
20
10000.0
30
0.0
0
INSERT
8
02_COLUMNS
2
BLK_COLUMN
10
60000.0
20
15000.0
30
0.0
0
INSERT
8
02_COLUMNS
2
BLK_COLUMN
10
60000.0
20
20000.0
30
0.0
0
INSERT
8
02_COLUMNS
2
BLK_COLUMN
10
60000.0
20
25000.0
30
0.0
0
INSERT
8
02_COLUMNS
2
BLK_COLUMN
10
60000.0
20
30000.0
30
0.0
0
INSERT
8
02_COLUMNS
2
BLK_COLUMN
10
60000.0
20
35000.0
30
0.0
0
INSERT
8
02_COLUMNS
2
BLK_COLUMN
10
60000.0
20
40000.0
30
0.0
0
INSERT
8
02_COLUMNS
2
BLK_COLUMN
10
60000.0
20
45000.0
30
0.0
0
INSERT
8
02_COLUMNS
2
BLK_COLUMN
10
60000.0
20
50000.0
30
0.0
0
INSERT
8
02_COLUMNS
2
BLK_COLUMN
10
65000.0
20
0.0
30
0.0
0
INSERT
8
02_COLUMNS
2
BLK_COLUMN
10
65000.0
20
5000.0
30
0.0
0
INSERT
8
02_COLUMNS
2
BLK_COLUMN
10
65000.0
20
10000.0
30
0.0
0
INSERT
8
02_COLUMNS
2
BLK_COLUMN
10
65000.0
20
15000.0
30
0.0
0
INSERT
8
02_COLUMNS
2
BLK_COLUMN
10
65000.0
20
20000.0
30
0.0
0
INSERT
8
02_COLUMNS
2
BLK_COLUMN
10
65000.0
20
25000.0
30
0.0
0
INSERT
8
02_COLUMNS
2
BLK_COLUMN
10
65000.0
20
30000.0
30
0.0
0
INSERT
8
02_COLUMNS
2
BLK_COLUMN
10
65000.0
20
35000.0
30
0.0
0
INSERT
8
02_COLUMNS
2
BLK_COLUMN
10
65000.0
20
40000.0
30
0.0
0
INSERT
8
02_COLUMNS
2
BLK_COLUMN
10
65000.0
20
45000.0
30
0.0
0
INSERT
8
02_COLUMNS
2
BLK_COLUMN
10
65000.0
20
50000.0
30
0.0
0
INSERT
8
02_COLUMNS
2
BLK_COLUMN
10
70000.0
20
0.0
30
0.0
0
INSERT
8
02_COLUMNS
2
BLK_COLUMN
10
70000.0
20
5000.0
30
0.0
0
INSERT
8
02_COLUMNS
2
BLK_COLUMN
10
70000.0
20
10000.0
30
0.0
0
INSERT
8
02_COLUMNS
2
BLK_COLUMN
10
70000.0
20
15000.0
30
0.0
0
INSERT
8
02_COLUMNS
2
BLK_COLUMN
10
70000.0
20
20000.0
30
0.0
0
INSERT
8
02_COLUMNS
2
BLK_COLUMN
10
70000.0
20
25000.0
30
0.0
0
INSERT
8
02_COLUMNS
2
BLK_COLUMN
10
70000.0
20
30000.0
30
0.0
0
INSERT
8
02_COLUMNS
2
BLK_COLUMN
10
70000.0
20
35000.0
30
0.0
0
INSERT
8
02_COLUMNS
2
BLK_COLUMN
10
70000.0
20
40000.0
30
0.0
0
INSERT
8
02_COLUMNS
2
BLK_COLUMN
10
70000.0
20
45000.0
30
0.0
0
INSERT
8
02_COLUMNS
2
BLK_COLUMN
10
70000.0
20
50000.0
30
0.0
0
INSERT
8
02_COLUMNS
2
BLK_COLUMN
10
75000.0
20
0.0
30
0.0
0
INSERT
8
02_COLUMNS
2
BLK_COLUMN
10
75000.0
20
5000.0
30
0.0
0
INSERT
8
02_COLUMNS
2
BLK_COLUMN
10
75000.0
20
10000.0
30
0.0
0
INSERT
8
02_COLUMNS
2
BLK_COLUMN
10
75000.0
20
15000.0
30
0.0
0
INSERT
8
02_COLUMNS
2
BLK_COLUMN
10
75000.0
20
20000.0
30
0.0
0
INSERT
8
02_COLUMNS
2
BLK_COLUMN
10
75000.0
20
25000.0
30
0.0
0
INSERT
8
02_COLUMNS
2
BLK_COLUMN
10
75000.0
20
30000.0
30
0.0
0
INSERT
8
02_COLUMNS
2
BLK_COLUMN
10
75000.0
20
35000.0
30
0.0
0
INSERT
8
02_COLUMNS
2
BLK_COLUMN
10
75000.0
20
40000.0
30
0.0
0
INSERT
8
02_COLUMNS
2
BLK_COLUMN
10
75000.0
20
45000.0
30
0.0
0
INSERT
8
02_COLUMNS
2
BLK_COLUMN
10
75000.0
20
50000.0
30
0.0
0
INSERT
8
02_COLUMNS
2
BLK_COLUMN
10
80000.0
20
0.0
30
0.0
0
INSERT
8
02_COLUMNS
2
BLK_COLUMN
10
80000.0
20
5000.0
30
0.0
0
INSERT
8
02_COLUMNS
2
BLK_COLUMN
10
80000.0
20
10000.0
30
0.0
0
INSERT
8
02_COLUMNS
2
BLK_COLUMN
10
80000.0
20
15000.0
30
0.0
0
INSERT
8
02_COLUMNS
2
BLK_COLUMN
10
80000.0
20
20000.0
30
0.0
0
INSERT
8
02_COLUMNS
2
BLK_COLUMN
10
80000.0
20
25000.0
30
0.0
0
INSERT
8
02_COLUMNS
2
BLK_COLUMN
10
80000.0
20
30000.0
30
0.0
0
INSERT
8
02_COLUMNS
2
BLK_COLUMN
10
80000.0
20
35000.0
30
0.0
0
INSERT
8
02_COLUMNS
2
BLK_COLUMN
10
80000.0
20
40000.0
30
0.0
0
INSERT
8
02_COLUMNS
2
BLK_COLUMN
10
80000.0
20
45000.0
30
0.0
0
INSERT
8
02_COLUMNS
2
BLK_COLUMN
10
80000.0
20
50000.0
30
0.0
0
INSERT
8
02_COLUMNS
2
BLK_COLUMN
10
85000.0
20
0.0
30
0.0
0
INSERT
8
02_COLUMNS
2
BLK_COLUMN
10
85000.0
20
5000.0
30
0.0
0
INSERT
8
02_COLUMNS
2
BLK_COLUMN
10
85000.0
20
10000.0
30
0.0
0
INSERT
8
02_COLUMNS
2
BLK_COLUMN
10
85000.0
20
15000.0
30
0.0
0
INSERT
8
02_COLUMNS
2
BLK_COLUMN
10
85000.0
20
20000.0
30
0.0
0
INSERT
8
02_COLUMNS
2
BLK_COLUMN
10
85000.0
20
25000.0
30
0.0
0
INSERT
8
02_COLUMNS
2
BLK_COLUMN
10
85000.0
20
30000.0
30
0.0
0
INSERT
8
02_COLUMNS
2
BLK_COLUMN
10
85000.0
20
35000.0
30
0.0
0
INSERT
8
02_COLUMNS
2
BLK_COLUMN
10
85000.0
20
40000.0
30
0.0
0
INSERT
8
02_COLUMNS
2
BLK_COLUMN
10
85000.0
20
45000.0
30
0.0
0
INSERT
8
02_COLUMNS
2
BLK_COLUMN
10
85000.0
20
50000.0
30
0.0
0
INSERT
8
02_COLUMNS
2
BLK_COLUMN
10
90000.0
20
0.0
30
0.0
0
INSERT
8
02_COLUMNS
2
BLK_COLUMN
10
90000.0
20
5000.0
30
0.0
0
INSERT
8
02_COLUMNS
2
BLK_COLUMN
10
90000.0
20
10000.0
30
0.0
0
INSERT
8
02_COLUMNS
2
BLK_COLUMN
10
90000.0
20
15000.0
30
0.0
0
INSERT
8
02_COLUMNS
2
BLK_COLUMN
10
90000.0
20
20000.0
30
0.0
0
INSERT
8
02_COLUMNS
2
BLK_COLUMN
10
90000.0
20
25000.0
30
0.0
0
INSERT
8
02_COLUMNS
2
BLK_COLUMN
10
90000.0
20
30000.0
30
0.0
0
INSERT
8
02_COLUMNS
2
BLK_COLUMN
10
90000.0
20
35000.0
30
0.0
0
INSERT
8
02_COLUMNS
2
BLK_COLUMN
10
90000.0
20
40000.0
30
0.0
0
INSERT
8
02_COLUMNS
2
BLK_COLUMN
10
90000.0
20
45000.0
30
0.0
0
INSERT
8
02_COLUMNS
2
BLK_COLUMN
10
90000.0
20
50000.0
30
0.0
0
INSERT
8
02_COLUMNS
2
BLK_COLUMN
10
95000.0
20
0.0
30
0.0
0
INSERT
8
02_COLUMNS
2
BLK_COLUMN
10
95000.0
20
5000.0
30
0.0
0
INSERT
8
02_COLUMNS
2
BLK_COLUMN
10
95000.0
20
10000.0
30
0.0
0
INSERT
8
02_COLUMNS
2
BLK_COLUMN
10
95000.0
20
15000.0
30
0.0
0
INSERT
8
02_COLUMNS
2
BLK_COLUMN
10
95000.0
20
20000.0
30
0.0
0
INSERT
8
02_COLUMNS
2
BLK_COLUMN
10
95000.0
20
25000.0
30
0.0
0
INSERT
8
02_COLUMNS
2
BLK_COLUMN
10
95000.0
20
30000.0
30
0.0
0
INSERT
8
02_COLUMNS
2
BLK_COLUMN
10
95000.0
20
35000.0
30
0.0
0
INSERT
8
02_COLUMNS
2
BLK_COLUMN
10
95000.0
20
40000.0
30
0.0
0
INSERT
8
02_COLUMNS
2
BLK_COLUMN
10
95000.0
20
45000.0
30
0.0
0
INSERT
8
02_COLUMNS
2
BLK_COLUMN
10
95000.0
20
50000.0
30
0.0
0
INSERT
8
02_COLUMNS
2
BLK_COLUMN
10
100000.0
20
0.0
30
0.0
0
INSERT
8
02_COLUMNS
2
BLK_COLUMN
10
100000.0
20
5000.0
30
0.0
0
INSERT
8
02_COLUMNS
2
BLK_COLUMN
10
100000.0
20
10000.0
30
0.0
0
INSERT
8
02_COLUMNS
2
BLK_COLUMN
10
100000.0
20
15000.0
30
0.0
0
INSERT
8
02_COLUMNS
2
BLK_COLUMN
10
100000.0
20
20000.0
30
0.0
0
INSERT
8
02_COLUMNS
2
BLK_COLUMN
10
100000.0
20
25000.0
30
0.0
0
INSERT
8
02_COLUMNS
2
BLK_COLUMN
10
100000.0
20
30000.0
30
0.0
0
INSERT
8
02_COLUMNS
2
BLK_COLUMN
10
100000.0
20
35000.0
30
0.0
0
INSERT
8
02_COLUMNS
2
BLK_COLUMN
10
100000.0
20
40000.0
30
0.0
0
INSERT
8
02_COLUMNS
2
BLK_COLUMN
10
100000.0
20
45000.0
30
0.0
0
INSERT
8
02_COLUMNS
2
BLK_COLUMN
10
100000.0
20
50000.0
30
0.0
0
POLYLINE
8
03_WALLS
66
1
70
1
0
VERTEX
8
03_WALLS
10
0.0
20
150.0
30
0.0
0
VERTEX
8
03_WALLS
10
100000.0
20
150.0
30
0.0
0
VERTEX
8
03_WALLS
10
100000.0
20
-150.0
30
0.0
0
VERTEX
8
03_WALLS
10
0.0
20
-150.0
30
0.0
0
SEQEND
0
LINE
8
01_GRID_AXIS
10
0.0
20
0.0
30
0.0
11
100000.0
21
0.0
31
0.0
0
POLYLINE
8
03_WALLS
66
1
70
1
0
VERTEX
8
03_WALLS
10
99850.0
20
0.0
30
0.0
0
VERTEX
8
03_WALLS
10
99850.0
20
50000.0
30
0.0
0
VERTEX
8
03_WALLS
10
100150.0
20
50000.0
30
0.0
0
VERTEX
8
03_WALLS
10
100150.0
20
0.0
30
0.0
0
SEQEND
0
LINE
8
01_GRID_AXIS
10
100000.0
20
0.0
30
0.0
11
100000.0
21
50000.0
31
0.0
0
POLYLINE
8
03_WALLS
66
1
70
1
0
VERTEX
8
03_WALLS
10
99850.0
20
50000.0
30
0.0
0
VERTEX
8
03_WALLS
10
99850.0
20
67000.0
30
0.0
0
VERTEX
8
03_WALLS
10
100150.0
20
67000.0
30
0.0
0
VERTEX
8
03_WALLS
10
100150.0
20
50000.0
30
0.0
0
SEQEND
0
LINE
8
01_GRID_AXIS
10
100000.0
20
50000.0
30
0.0
11
100000.0
21
67000.0
31
0.0
0
POLYLINE
8
03_WALLS
66
1
70
1
0
VERTEX
8
03_WALLS
10
100000.0
20
66850.0
30
0.0
0
VERTEX
8
03_WALLS
10
80000.0
20
66850.0
30
0.0
0
VERTEX
8
03_WALLS
10
80000.0
20
67150.0
30
0.0
0
VERTEX
8
03_WALLS
10
100000.0
20
67150.0
30
0.0
0
SEQEND
0
LINE
8
01_GRID_AXIS
10
100000.0
20
67000.0
30
0.0
11
80000.0
21
67000.0
31
0.0
0
POLYLINE
8
03_WALLS
66
1
70
1
0
VERTEX
8
03_WALLS
10
80150.0
20
67000.0
30
0.0
0
VERTEX
8
03_WALLS
10
80150.0
20
50000.0
30
0.0
0
VERTEX
8
03_WALLS
10
79850.0
20
50000.0
30
0.0
0
VERTEX
8
03_WALLS
10
79850.0
20
67000.0
30
0.0
0
SEQEND
0
LINE
8
01_GRID_AXIS
10
80000.0
20
67000.0
30
0.0
11
80000.0
21
50000.0
31
0.0
0
POLYLINE
8
03_WALLS
66
1
70
1
0
VERTEX
8
03_WALLS
10
100000.0
20
49850.0
30
0.0
0
VERTEX
8
03_WALLS
10
0.0
20
49850.0
30
0.0
0
VERTEX
8
03_WALLS
10
0.0
20
50150.0
30
0.0
0
VERTEX
8
03_WALLS
10
100000.0
20
50150.0
30
0.0
0
SEQEND
0
LINE
8
01_GRID_AXIS
10
100000.0
20
50000.0
30
0.0
11
0.0
21
50000.0
31
0.0
0
POLYLINE
8
03_WALLS
66
1
70
1
0
VERTEX
8
03_WALLS
10
150.0
20
50000.0
30
0.0
0
VERTEX
8
03_WALLS
10
150.0
20
0.0
30
0.0
0
VERTEX
8
03_WALLS
10
-150.0
20
0.0
30
0.0
0
VERTEX
8
03_WALLS
10
-150.0
20
50000.0
30
0.0
0
SEQEND
0
LINE
8
01_GRID_AXIS
10
0.0
20
50000.0
30
0.0
11
0.0
21
0.0
31
0.0
0
POLYLINE
8
03_WALLS
66
1
70
1
0
VERTEX
8
03_WALLS
10
0.0
20
35125.0
30
0.0
0
VERTEX
8
03_WALLS
10
35000.0
20
35125.0
30
0.0
0
VERTEX
8
03_WALLS
10
35000.0
20
34875.0
30
0.0
0
VERTEX
8
03_WALLS
10
0.0
20
34875.0
30
0.0
0
SEQEND
0
LINE
8
01_GRID_AXIS
10
0.0
20
35000.0
30
0.0
11
35000.0
21
35000.0
31
0.0
0
POLYLINE
8
03_WALLS
66
1
70
1
0
VERTEX
8
03_WALLS
10
35000.0
20
28100.0
30
0.0
0
VERTEX
8
03_WALLS
10
47000.0
20
28100.0
30
0.0
0
VERTEX
8
03_WALLS
10
47000.0
20
27900.0
30
0.0
0
VERTEX
8
03_WALLS
10
35000.0
20
27900.0
30
0.0
0
SEQEND
0
LINE
8
01_GRID_AXIS
10
35000.0
20
28000.0
30
0.0
11
47000.0
21
28000.0
31
0.0
0
POLYLINE
8
03_WALLS
66
1
70
1
0
VERTEX
8
03_WALLS
10
46900.0
20
28000.0
30
0.0
0
VERTEX
8
03_WALLS
10
46900.0
20
39000.0
30
0.0
0
VERTEX
8
03_WALLS
10
47100.0
20
39000.0
30
0.0
0
VERTEX
8
03_WALLS
10
47100.0
20
28000.0
30
0.0
0
SEQEND
0
LINE
8
01_GRID_AXIS
10
47000.0
20
28000.0
30
0.0
11
47000.0
21
39000.0
31
0.0
0
POLYLINE
8
03_WALLS
66
1
70
1
0
VERTEX
8
03_WALLS
10
47000.0
20
38900.0
30
0.0
0
VERTEX
8
03_WALLS
10
35000.0
20
38900.0
30
0.0
0
VERTEX
8
03_WALLS
10
35000.0
20
39100.0
30
0.0
0
VERTEX
8
03_WALLS
10
47000.0
20
39100.0
30
0.0
0
SEQEND
0
LINE
8
01_GRID_AXIS
10
47000.0
20
39000.0
30
0.0
11
35000.0
21
39000.0
31
0.0
0
POLYLINE
8
03_WALLS
66
1
70
1
0
VERTEX
8
03_WALLS
10
35100.0
20
39000.0
30
0.0
0
VERTEX
8
03_WALLS
10
35100.0
20
28000.0
30
0.0
0
VERTEX
8
03_WALLS
10
34900.0
20
28000.0
30
0.0
0
VERTEX
8
03_WALLS
10
34900.0
20
39000.0
30
0.0
0
SEQEND
0
LINE
8
01_GRID_AXIS
10
35000.0
20
39000.0
30
0.0
11
35000.0
21
28000.0
31
0.0
0
POLYLINE
8
03_WALLS
66
1
70
1
0
VERTEX
8
03_WALLS
10
34900.0
20
0.0
30
0.0
0
VERTEX
8
03_WALLS
10
34900.0
20
20000.0
30
0.0
0
VERTEX
8
03_WALLS
10
35100.0
20
20000.0
30
0.0
0
VERTEX
8
03_WALLS
10
35100.0
20
0.0
30
0.0
0
SEQEND
0
LINE
8
01_GRID_AXIS
10
35000.0
20
0.0
30
0.0
11
35000.0
21
20000.0
31
0.0
0
POLYLINE
8
03_WALLS
66
1
70
1
0
VERTEX
8
03_WALLS
10
27900.0
20
0.0
30
0.0
0
VERTEX
8
03_WALLS
10
27900.0
20
6000.0
30
0.0
0
VERTEX
8
03_WALLS
10
28100.0
20
6000.0
30
0.0
0
VERTEX
8
03_WALLS
10
28100.0
20
0.0
30
0.0
0
SEQEND
0
LINE
8
01_GRID_AXIS
10
28000.0
20
0.0
30
0.0
11
28000.0
21
6000.0
31
0.0
0
POLYLINE
8
03_WALLS
66
1
70
1
0
VERTEX
8
03_WALLS
10
28000.0
20
6100.0
30
0.0
0
VERTEX
8
03_WALLS
10
34000.0
20
6100.0
30
0.0
0
VERTEX
8
03_WALLS
10
34000.0
20
5900.0
30
0.0
0
VERTEX
8
03_WALLS
10
28000.0
20
5900.0
30
0.0
0
SEQEND
0
LINE
8
01_GRID_AXIS
10
28000.0
20
6000.0
30
0.0
11
34000.0
21
6000.0
31
0.0
0
POLYLINE
8
03_WALLS
66
1
70
1
0
VERTEX
8
03_WALLS
10
34100.0
20
6000.0
30
0.0
0
VERTEX
8
03_WALLS
10
34100.0
20
0.0
30
0.0
0
VERTEX
8
03_WALLS
10
33900.0
20
0.0
30
0.0
0
VERTEX
8
03_WALLS
10
33900.0
20
6000.0
30
0.0
0
SEQEND
0
LINE
8
01_GRID_AXIS
10
34000.0
20
6000.0
30
0.0
11
34000.0
21
0.0
31
0.0
0
POLYLINE
8
03_WALLS
66
1
70
1
0
VERTEX
8
03_WALLS
10
13000.0
20
29600.0
30
0.0
0
VERTEX
8
03_WALLS
10
24500.0
20
29600.0
30
0.0
0
VERTEX
8
03_WALLS
10
24500.0
20
29400.0
30
0.0
0
VERTEX
8
03_WALLS
10
13000.0
20
29400.0
30
0.0
0
SEQEND
0
LINE
8
01_GRID_AXIS
10
13000.0
20
29500.0
30
0.0
11
24500.0
21
29500.0
31
0.0
0
POLYLINE
8
03_WALLS
66
1
70
1
0
VERTEX
8
03_WALLS
10
24400.0
20
29500.0
30
0.0
0
VERTEX
8
03_WALLS
10
24400.0
20
35000.0
30
0.0
0
VERTEX
8
03_WALLS
10
24600.0
20
35000.0
30
0.0
0
VERTEX
8
03_WALLS
10
24600.0
20
29500.0
30
0.0
0
SEQEND
0
LINE
8
01_GRID_AXIS
10
24500.0
20
29500.0
30
0.0
11
24500.0
21
35000.0
31
0.0
0
POLYLINE
8
03_WALLS
66
1
70
1
0
VERTEX
8
03_WALLS
10
12900.0
20
29500.0
30
0.0
0
VERTEX
8
03_WALLS
10
12900.0
20
35000.0
30
0.0
0
VERTEX
8
03_WALLS
10
13100.0
20
35000.0
30
0.0
0
VERTEX
8
03_WALLS
10
13100.0
20
29500.0
30
0.0
0
SEQEND
0
LINE
8
01_GRID_AXIS
10
13000.0
20
29500.0
30
0.0
11
13000.0
21
35000.0
31
0.0
0
POLYLINE
8
03_WALLS
66
1
70
1
0
VERTEX
8
03_WALLS
10
80000.0
20
55100.0
30
0.0
0
VERTEX
8
03_WALLS
10
100000.0
20
55100.0
30
0.0
0
VERTEX
8
03_WALLS
10
100000.0
20
54900.0
30
0.0
0
VERTEX
8
03_WALLS
10
80000.0
20
54900.0
30
0.0
0
SEQEND
0
LINE
8
01_GRID_AXIS
10
80000.0
20
55000.0
30
0.0
11
100000.0
21
55000.0
31
0.0
0
POLYLINE
8
03_WALLS
66
1
70
1
0
VERTEX
8
03_WALLS
10
79900.0
20
55000.0
30
0.0
0
VERTEX
8
03_WALLS
10
79900.0
20
67000.0
30
0.0
0
VERTEX
8
03_WALLS
10
80100.0
20
67000.0
30
0.0
0
VERTEX
8
03_WALLS
10
80100.0
20
55000.0
30
0.0
0
SEQEND
0
LINE
8
01_GRID_AXIS
10
80000.0
20
55000.0
30
0.0
11
80000.0
21
67000.0
31
0.0
0
POLYLINE
8
04_AISLES
66
1
70
1
0
VERTEX
8
04_AISLES
10
0.0
20
44000.0
30
0.0
0
VERTEX
8
04_AISLES
10
80000.0
20
44000.0
30
0.0
0
VERTEX
8
04_AISLES
10
80000.0
20
48000.0
30
0.0
0
VERTEX
8
04_AISLES
10
0.0
20
48000.0
30
0.0
0
SEQEND
0
TEXT
8
07_TEXT
10
40000.0
20
46000.0
30
0.0
40
300.0
1
中央主幹物流道 (Main Forklift Aisle 4.0M)
72
1
11
40000.0
21
46000.0
31
0.0
0
POLYLINE
8
04_AISLES
66
1
70
1
0
VERTEX
8
04_AISLES
10
48000.0
20
11000.0
30
0.0
0
VERTEX
8
04_AISLES
10
51000.0
20
11000.0
30
0.0
0
VERTEX
8
04_AISLES
10
51000.0
20
44000.0
30
0.0
0
VERTEX
8
04_AISLES
10
48000.0
20
44000.0
30
0.0
0
SEQEND
0
TEXT
8
07_TEXT
10
49500.0
20
27500.0
30
0.0
40
300.0
1
南北向連通走道 (North-South Connector)
72
1
11
49500.0
21
27500.0
31
0.0
0
POLYLINE
8
04_AISLES
66
1
70
1
0
VERTEX
8
04_AISLES
10
75000.0
20
48000.0
30
0.0
0
VERTEX
8
04_AISLES
10
78500.0
20
48000.0
30
0.0
0
VERTEX
8
04_AISLES
10
78500.0
20
67000.0
30
0.0
0
VERTEX
8
04_AISLES
10
75000.0
20
67000.0
30
0.0
0
SEQEND
0
TEXT
8
07_TEXT
10
76750.0
20
57500.0
30
0.0
40
300.0
1
CNC 聯絡通道 (CNC Access Aisle)
72
1
11
76750.0
21
57500.0
31
0.0
0
LINE
8
11_FLOW_ROUTES
10
0.0
20
46000.0
30
0.0
11
80000.0
21
46000.0
31
0.0
0
LINE
8
11_FLOW_ROUTES
10
49500.0
20
11000.0
30
0.0
11
49500.0
21
44000.0
31
0.0
0
LINE
8
11_FLOW_ROUTES
10
35000.0
20
41500.0
30
0.0
11
48000.0
21
41500.0
31
0.0
0
LINE
8
11_FLOW_ROUTES
10
48000.0
20
41500.0
30
0.0
11
48000.0
21
26000.0
31
0.0
0
LINE
8
11_FLOW_ROUTES
10
18000.0
20
7500.0
30
0.0
11
23000.0
21
7500.0
31
0.0
0
LINE
8
11_FLOW_ROUTES
10
23000.0
20
7500.0
30
0.0
11
23000.0
21
14000.0
31
0.0
0
LINE
8
11_FLOW_ROUTES
10
35000.0
20
32000.0
30
0.0
11
10000.0
21
32000.0
31
0.0
0
LINE
8
11_FLOW_ROUTES
10
10000.0
20
32000.0
30
0.0
11
0.0
21
35000.0
31
0.0
0
POLYLINE
8
09_2F_MEZZANINE
66
1
70
1
0
VERTEX
8
09_2F_MEZZANINE
10
0.0
20
19000.0
30
0.0
0
VERTEX
8
09_2F_MEZZANINE
10
15000.0
20
19000.0
30
0.0
0
VERTEX
8
09_2F_MEZZANINE
10
15000.0
20
23750.0
30
0.0
0
VERTEX
8
09_2F_MEZZANINE
10
0.0
20
23750.0
30
0.0
0
SEQEND
0
TEXT
8
07_TEXT
10
7500.0
20
21375.0
30
0.0
40
400.0
1
既有夾層 (Existing Mezzanine) (+4.40M)
72
1
11
7500.0
21
21375.0
31
0.0
0
POLYLINE
8
09_2F_MEZZANINE
66
1
70
1
0
VERTEX
8
09_2F_MEZZANINE
10
0.0
20
9500.0
30
0.0
0
VERTEX
8
09_2F_MEZZANINE
10
15000.0
20
9500.0
30
0.0
0
VERTEX
8
09_2F_MEZZANINE
10
15000.0
20
19000.0
30
0.0
0
VERTEX
8
09_2F_MEZZANINE
10
0.0
20
19000.0
30
0.0
0
SEQEND
0
TEXT
8
07_TEXT
10
7500.0
20
14250.0
30
0.0
40
400.0
1
新建夾層 ZONE B (Mezzanine Zone B) (+4.40M)
72
1
11
7500.0
21
14250.0
31
0.0
0
POLYLINE
8
09_2F_MEZZANINE
66
1
70
1
0
VERTEX
8
09_2F_MEZZANINE
10
30000.0
20
14250.0
30
0.0
0
VERTEX
8
09_2F_MEZZANINE
10
35000.0
20
14250.0
30
0.0
0
VERTEX
8
09_2F_MEZZANINE
10
35000.0
20
19000.0
30
0.0
0
VERTEX
8
09_2F_MEZZANINE
10
30000.0
20
19000.0
30
0.0
0
SEQEND
0
TEXT
8
07_TEXT
10
32500.0
20
16625.0
30
0.0
40
400.0
1
新建夾層 ZONE A (北翼突起部) (+4.40M)
72
1
11
32500.0
21
16625.0
31
0.0
0
POLYLINE
8
09_2F_MEZZANINE
66
1
70
1
0
VERTEX
8
09_2F_MEZZANINE
10
20000.0
20
19000.0
30
0.0
0
VERTEX
8
09_2F_MEZZANINE
10
35000.0
20
19000.0
30
0.0
0
VERTEX
8
09_2F_MEZZANINE
10
35000.0
20
28500.0
30
0.0
0
VERTEX
8
09_2F_MEZZANINE
10
20000.0
20
28500.0
30
0.0
0
SEQEND
0
TEXT
8
07_TEXT
10
27500.0
20
23750.0
30
0.0
40
400.0
1
新建夾層 ZONE A (主倉儲區) (+4.40M)
72
1
11
27500.0
21
23750.0
31
0.0
0
POLYLINE
8
09_2F_MEZZANINE
66
1
70
1
0
VERTEX
8
09_2F_MEZZANINE
10
15000.0
20
19000.0
30
0.0
0
VERTEX
8
09_2F_MEZZANINE
10
18200.0
20
19000.0
30
0.0
0
VERTEX
8
09_2F_MEZZANINE
10
18200.0
20
23750.0
30
0.0
0
VERTEX
8
09_2F_MEZZANINE
10
15000.0
20
23750.0
30
0.0
0
SEQEND
0
TEXT
8
07_TEXT
10
16600.0
20
21375.0
30
0.0
40
400.0
1
連通走廊與梯廳 (+4.40M)
72
1
11
16600.0
21
21375.0
31
0.0
0
LINE
8
10_2F_HANDRAIL
10
0.0
20
9500.0
30
0.0
11
15000.0
21
9500.0
31
0.0
0
LINE
8
10_2F_HANDRAIL
10
15000.0
20
9500.0
30
0.0
11
15000.0
21
19000.0
31
0.0
0
LINE
8
10_2F_HANDRAIL
10
30000.0
20
14250.0
30
0.0
11
35000.0
21
14250.0
31
0.0
0
LINE
8
10_2F_HANDRAIL
10
30000.0
20
14250.0
30
0.0
11
30000.0
21
19000.0
31
0.0
0
LINE
8
10_2F_HANDRAIL
10
20000.0
20
19000.0
30
0.0
11
30000.0
21
19000.0
31
0.0
0
LINE
8
10_2F_HANDRAIL
10
15000.0
20
19000.0
30
0.0
11
16800.0
21
19000.0
31
0.0
0
LINE
8
10_2F_HANDRAIL
10
16800.0
20
21200.0
30
0.0
11
16800.0
21
23750.0
31
0.0
0
LINE
8
10_2F_HANDRAIL
10
18200.0
20
19000.0
30
0.0
11
18200.0
21
23750.0
31
0.0
0
POLYLINE
8
05_EQUIPMENT_1F
66
1
70
1
0
VERTEX
8
05_EQUIPMENT_1F
10
3500.0
20
2000.0
30
0.0
0
VERTEX
8
05_EQUIPMENT_1F
10
6700.0
20
2000.0
30
0.0
0
VERTEX
8
05_EQUIPMENT_1F
10
6700.0
20
5800.0
30
0.0
0
VERTEX
8
05_EQUIPMENT_1F
10
3500.0
20
5800.0
30
0.0
0
SEQEND
0
TEXT
8
07_TEXT
10
5100.0
20
3900.0
30
0.0
40
250.0
1
N1-1
72
1
11
5100.0
21
3900.0
31
0.0
0
POLYLINE
8
05_EQUIPMENT_1F
66
1
70
1
0
VERTEX
8
05_EQUIPMENT_1F
10
9500.0
20
1200.0
30
0.0
0
VERTEX
8
05_EQUIPMENT_1F
10
14000.0
20
1200.0
30
0.0
0
VERTEX
8
05_EQUIPMENT_1F
10
14000.0
20
5800.0
30
0.0
0
VERTEX
8
05_EQUIPMENT_1F
10
9500.0
20
5800.0
30
0.0
0
SEQEND
0
TEXT
8
07_TEXT
10
11750.0
20
3500.0
30
0.0
40
250.0
1
J1-1
72
1
11
11750.0
21
3500.0
31
0.0
0
POLYLINE
8
05_EQUIPMENT_1F
66
1
70
1
0
VERTEX
8
05_EQUIPMENT_1F
10
18200.0
20
1200.0
30
0.0
0
VERTEX
8
05_EQUIPMENT_1F
10
22700.0
20
1200.0
30
0.0
0
VERTEX
8
05_EQUIPMENT_1F
10
22700.0
20
3900.0
30
0.0
0
VERTEX
8
05_EQUIPMENT_1F
10
18200.0
20
3900.0
30
0.0
0
SEQEND
0
TEXT
8
07_TEXT
10
20450.0
20
2550.0
30
0.0
40
250.0
1
T Cut 2
72
1
11
20450.0
21
2550.0
31
0.0
0
POLYLINE
8
05_EQUIPMENT_1F
66
1
70
1
0
VERTEX
8
05_EQUIPMENT_1F
10
18200.0
20
4300.0
30
0.0
0
VERTEX
8
05_EQUIPMENT_1F
10
22700.0
20
4300.0
30
0.0
0
VERTEX
8
05_EQUIPMENT_1F
10
22700.0
20
7000.0
30
0.0
0
VERTEX
8
05_EQUIPMENT_1F
10
18200.0
20
7000.0
30
0.0
0
SEQEND
0
TEXT
8
07_TEXT
10
20450.0
20
5650.0
30
0.0
40
250.0
1
T Cut 1
72
1
11
20450.0
21
5650.0
31
0.0
0
POLYLINE
8
05_EQUIPMENT_1F
66
1
70
1
0
VERTEX
8
05_EQUIPMENT_1F
10
9000.0
20
7500.0
30
0.0
0
VERTEX
8
05_EQUIPMENT_1F
10
18500.0
20
7500.0
30
0.0
0
VERTEX
8
05_EQUIPMENT_1F
10
18500.0
20
9700.0
30
0.0
0
VERTEX
8
05_EQUIPMENT_1F
10
9000.0
20
9700.0
30
0.0
0
SEQEND
0
TEXT
8
07_TEXT
10
13750.0
20
8600.0
30
0.0
40
250.0
1
M1-1
72
1
11
13750.0
21
8600.0
31
0.0
0
POLYLINE
8
05_EQUIPMENT_1F
66
1
70
1
0
VERTEX
8
05_EQUIPMENT_1F
10
28500.0
20
1000.0
30
0.0
0
VERTEX
8
05_EQUIPMENT_1F
10
33300.0
20
1000.0
30
0.0
0
VERTEX
8
05_EQUIPMENT_1F
10
33300.0
20
5500.0
30
0.0
0
VERTEX
8
05_EQUIPMENT_1F
10
28500.0
20
5500.0
30
0.0
0
SEQEND
0
TEXT
8
07_TEXT
10
30900.0
20
3250.0
30
0.0
40
250.0
1
Lift 1
72
1
11
30900.0
21
3250.0
31
0.0
0
POLYLINE
8
05_EQUIPMENT_1F
66
1
70
1
0
VERTEX
8
05_EQUIPMENT_1F
10
44000.0
20
-2500.0
30
0.0
0
VERTEX
8
05_EQUIPMENT_1F
10
50000.0
20
-2500.0
30
0.0
0
VERTEX
8
05_EQUIPMENT_1F
10
50000.0
20
-300.0
30
0.0
0
VERTEX
8
05_EQUIPMENT_1F
10
44000.0
20
-300.0
30
0.0
0
SEQEND
0
TEXT
8
07_TEXT
10
47000.0
20
-1400.0
30
0.0
40
250.0
1
ปั๊มลม
72
1
11
47000.0
21
-1400.0
31
0.0
0
POLYLINE
8
05_EQUIPMENT_1F
66
1
70
1
0
VERTEX
8
05_EQUIPMENT_1F
10
42000.0
20
2000.0
30
0.0
0
VERTEX
8
05_EQUIPMENT_1F
10
56500.0
20
2000.0
30
0.0
0
VERTEX
8
05_EQUIPMENT_1F
10
56500.0
20
6200.0
30
0.0
0
VERTEX
8
05_EQUIPMENT_1F
10
42000.0
20
6200.0
30
0.0
0
SEQEND
0
TEXT
8
07_TEXT
10
49250.0
20
4100.0
30
0.0
40
250.0
1
F1-1
72
1
11
49250.0
21
4100.0
31
0.0
0
POLYLINE
8
05_EQUIPMENT_1F
66
1
70
1
0
VERTEX
8
05_EQUIPMENT_1F
10
64500.0
20
2000.0
30
0.0
0
VERTEX
8
05_EQUIPMENT_1F
10
82500.0
20
2000.0
30
0.0
0
VERTEX
8
05_EQUIPMENT_1F
10
82500.0
20
6500.0
30
0.0
0
VERTEX
8
05_EQUIPMENT_1F
10
64500.0
20
6500.0
30
0.0
0
SEQEND
0
TEXT
8
07_TEXT
10
73500.0
20
4250.0
30
0.0
40
250.0
1
A1-1
72
1
11
73500.0
21
4250.0
31
0.0
0
POLYLINE
8
05_EQUIPMENT_1F
66
1
70
1
0
VERTEX
8
05_EQUIPMENT_1F
10
84000.0
20
6500.0
30
0.0
0
VERTEX
8
05_EQUIPMENT_1F
10
96500.0
20
6500.0
30
0.0
0
VERTEX
8
05_EQUIPMENT_1F
10
96500.0
20
10500.0
30
0.0
0
VERTEX
8
05_EQUIPMENT_1F
10
84000.0
20
10500.0
30
0.0
0
SEQEND
0
TEXT
8
07_TEXT
10
90250.0
20
8500.0
30
0.0
40
250.0
1
H1-1
72
1
11
90250.0
21
8500.0
31
0.0
0
POLYLINE
8
05_EQUIPMENT_1F
66
1
70
1
0
VERTEX
8
05_EQUIPMENT_1F
10
9000.0
20
14500.0
30
0.0
0
VERTEX
8
05_EQUIPMENT_1F
10
20500.0
20
14500.0
30
0.0
0
VERTEX
8
05_EQUIPMENT_1F
10
20500.0
20
17000.0
30
0.0
0
VERTEX
8
05_EQUIPMENT_1F
10
9000.0
20
17000.0
30
0.0
0
SEQEND
0
TEXT
8
07_TEXT
10
14750.0
20
15750.0
30
0.0
40
250.0
1
M2-1
72
1
11
14750.0
21
15750.0
31
0.0
0
POLYLINE
8
05_EQUIPMENT_1F
66
1
70
1
0
VERTEX
8
05_EQUIPMENT_1F
10
23500.0
20
19500.0
30
0.0
0
VERTEX
8
05_EQUIPMENT_1F
10
26300.0
20
19500.0
30
0.0
0
VERTEX
8
05_EQUIPMENT_1F
10
26300.0
20
21700.0
30
0.0
0
VERTEX
8
05_EQUIPMENT_1F
10
23500.0
20
21700.0
30
0.0
0
SEQEND
0
TEXT
8
07_TEXT
10
24900.0
20
20600.0
30
0.0
40
250.0
1
Q2-2
72
1
11
24900.0
21
20600.0
31
0.0
0
POLYLINE
8
05_EQUIPMENT_1F
66
1
70
1
0
VERTEX
8
05_EQUIPMENT_1F
10
23500.0
20
22500.0
30
0.0
0
VERTEX
8
05_EQUIPMENT_1F
10
26300.0
20
22500.0
30
0.0
0
VERTEX
8
05_EQUIPMENT_1F
10
26300.0
20
24700.0
30
0.0
0
VERTEX
8
05_EQUIPMENT_1F
10
23500.0
20
24700.0
30
0.0
0
SEQEND
0
TEXT
8
07_TEXT
10
24900.0
20
23600.0
30
0.0
40
250.0
1
Q2-1
72
1
11
24900.0
21
23600.0
31
0.0
0
POLYLINE
8
05_EQUIPMENT_1F
66
1
70
1
0
VERTEX
8
05_EQUIPMENT_1F
10
10500.0
20
24500.0
30
0.0
0
VERTEX
8
05_EQUIPMENT_1F
10
12700.0
20
24500.0
30
0.0
0
VERTEX
8
05_EQUIPMENT_1F
10
12700.0
20
29300.0
30
0.0
0
VERTEX
8
05_EQUIPMENT_1F
10
10500.0
20
29300.0
30
0.0
0
SEQEND
0
TEXT
8
07_TEXT
10
11600.0
20
26900.0
30
0.0
40
250.0
1
Q2-3
72
1
11
11600.0
21
26900.0
31
0.0
0
POLYLINE
8
05_EQUIPMENT_1F
66
1
70
1
0
VERTEX
8
05_EQUIPMENT_1F
10
19000.0
20
29500.0
30
0.0
0
VERTEX
8
05_EQUIPMENT_1F
10
23800.0
20
29500.0
30
0.0
0
VERTEX
8
05_EQUIPMENT_1F
10
23800.0
20
34300.0
30
0.0
0
VERTEX
8
05_EQUIPMENT_1F
10
19000.0
20
34300.0
30
0.0
0
SEQEND
0
TEXT
8
07_TEXT
10
21400.0
20
31900.0
30
0.0
40
250.0
1
貨梯
72
1
11
21400.0
21
31900.0
31
0.0
0
POLYLINE
8
05_EQUIPMENT_1F
66
1
70
1
0
VERTEX
8
05_EQUIPMENT_1F
10
13500.0
20
32500.0
30
0.0
0
VERTEX
8
05_EQUIPMENT_1F
10
18500.0
20
32500.0
30
0.0
0
VERTEX
8
05_EQUIPMENT_1F
10
18500.0
20
35700.0
30
0.0
0
VERTEX
8
05_EQUIPMENT_1F
10
13500.0
20
35700.0
30
0.0
0
SEQEND
0
TEXT
8
07_TEXT
10
16000.0
20
34100.0
30
0.0
40
250.0
1
連通道
72
1
11
16000.0
21
34100.0
31
0.0
0
POLYLINE
8
05_EQUIPMENT_1F
66
1
70
1
0
VERTEX
8
05_EQUIPMENT_1F
10
35500.0
20
28500.0
30
0.0
0
VERTEX
8
05_EQUIPMENT_1F
10
47000.0
20
28500.0
30
0.0
0
VERTEX
8
05_EQUIPMENT_1F
10
47000.0
20
39000.0
30
0.0
0
VERTEX
8
05_EQUIPMENT_1F
10
35500.0
20
39000.0
30
0.0
0
SEQEND
0
TEXT
8
07_TEXT
10
41250.0
20
33750.0
30
0.0
40
250.0
1
Office
72
1
11
41250.0
21
33750.0
31
0.0
0
POLYLINE
8
05_EQUIPMENT_1F
66
1
70
1
0
VERTEX
8
05_EQUIPMENT_1F
10
51000.0
20
14500.0
30
0.0
0
VERTEX
8
05_EQUIPMENT_1F
10
53400.0
20
14500.0
30
0.0
0
VERTEX
8
05_EQUIPMENT_1F
10
53400.0
20
20000.0
30
0.0
0
VERTEX
8
05_EQUIPMENT_1F
10
51000.0
20
20000.0
30
0.0
0
SEQEND
0
TEXT
8
07_TEXT
10
52200.0
20
17250.0
30
0.0
40
250.0
1
G2-1
72
1
11
52200.0
21
17250.0
31
0.0
0
POLYLINE
8
05_EQUIPMENT_1F
66
1
70
1
0
VERTEX
8
05_EQUIPMENT_1F
10
44500.0
20
22500.0
30
0.0
0
VERTEX
8
05_EQUIPMENT_1F
10
49300.0
20
22500.0
30
0.0
0
VERTEX
8
05_EQUIPMENT_1F
10
49300.0
20
26300.0
30
0.0
0
VERTEX
8
05_EQUIPMENT_1F
10
44500.0
20
26300.0
30
0.0
0
SEQEND
0
TEXT
8
07_TEXT
10
46900.0
20
24400.0
30
0.0
40
250.0
1
G2-2
72
1
11
46900.0
21
24400.0
31
0.0
0
POLYLINE
8
05_EQUIPMENT_1F
66
1
70
1
0
VERTEX
8
05_EQUIPMENT_1F
10
56500.0
20
14000.0
30
0.0
0
VERTEX
8
05_EQUIPMENT_1F
10
59000.0
20
14000.0
30
0.0
0
VERTEX
8
05_EQUIPMENT_1F
10
59000.0
20
19200.0
30
0.0
0
VERTEX
8
05_EQUIPMENT_1F
10
56500.0
20
19200.0
30
0.0
0
SEQEND
0
TEXT
8
07_TEXT
10
57750.0
20
16600.0
30
0.0
40
250.0
1
B1-4
72
1
11
57750.0
21
16600.0
31
0.0
0
POLYLINE
8
05_EQUIPMENT_1F
66
1
70
1
0
VERTEX
8
05_EQUIPMENT_1F
10
60000.0
20
14000.0
30
0.0
0
VERTEX
8
05_EQUIPMENT_1F
10
62500.0
20
14000.0
30
0.0
0
VERTEX
8
05_EQUIPMENT_1F
10
62500.0
20
19200.0
30
0.0
0
VERTEX
8
05_EQUIPMENT_1F
10
60000.0
20
19200.0
30
0.0
0
SEQEND
0
TEXT
8
07_TEXT
10
61250.0
20
16600.0
30
0.0
40
250.0
1
B1-3
72
1
11
61250.0
21
16600.0
31
0.0
0
POLYLINE
8
05_EQUIPMENT_1F
66
1
70
1
0
VERTEX
8
05_EQUIPMENT_1F
10
66500.0
20
14000.0
30
0.0
0
VERTEX
8
05_EQUIPMENT_1F
10
69000.0
20
14000.0
30
0.0
0
VERTEX
8
05_EQUIPMENT_1F
10
69000.0
20
19200.0
30
0.0
0
VERTEX
8
05_EQUIPMENT_1F
10
66500.0
20
19200.0
30
0.0
0
SEQEND
0
TEXT
8
07_TEXT
10
67750.0
20
16600.0
30
0.0
40
250.0
1
B1-2
72
1
11
67750.0
21
16600.0
31
0.0
0
POLYLINE
8
05_EQUIPMENT_1F
66
1
70
1
0
VERTEX
8
05_EQUIPMENT_1F
10
70500.0
20
14000.0
30
0.0
0
VERTEX
8
05_EQUIPMENT_1F
10
73000.0
20
14000.0
30
0.0
0
VERTEX
8
05_EQUIPMENT_1F
10
73000.0
20
19200.0
30
0.0
0
VERTEX
8
05_EQUIPMENT_1F
10
70500.0
20
19200.0
30
0.0
0
SEQEND
0
TEXT
8
07_TEXT
10
71750.0
20
16600.0
30
0.0
40
250.0
1
B1-1
72
1
11
71750.0
21
16600.0
31
0.0
0
POLYLINE
8
05_EQUIPMENT_1F
66
1
70
1
0
VERTEX
8
05_EQUIPMENT_1F
10
78500.0
20
15000.0
30
0.0
0
VERTEX
8
05_EQUIPMENT_1F
10
89500.0
20
15000.0
30
0.0
0
VERTEX
8
05_EQUIPMENT_1F
10
89500.0
20
22500.0
30
0.0
0
VERTEX
8
05_EQUIPMENT_1F
10
78500.0
20
22500.0
30
0.0
0
SEQEND
0
TEXT
8
07_TEXT
10
84000.0
20
18750.0
30
0.0
40
250.0
1
EVA 3
72
1
11
84000.0
21
18750.0
31
0.0
0
POLYLINE
8
05_EQUIPMENT_1F
66
1
70
1
0
VERTEX
8
05_EQUIPMENT_1F
10
58000.0
20
28500.0
30
0.0
0
VERTEX
8
05_EQUIPMENT_1F
10
76500.0
20
28500.0
30
0.0
0
VERTEX
8
05_EQUIPMENT_1F
10
76500.0
20
32300.0
30
0.0
0
VERTEX
8
05_EQUIPMENT_1F
10
58000.0
20
32300.0
30
0.0
0
SEQEND
0
TEXT
8
07_TEXT
10
67250.0
20
30400.0
30
0.0
40
250.0
1
C1-1
72
1
11
67250.0
21
30400.0
31
0.0
0
POLYLINE
8
05_EQUIPMENT_1F
66
1
70
1
0
VERTEX
8
05_EQUIPMENT_1F
10
81000.0
20
29500.0
30
0.0
0
VERTEX
8
05_EQUIPMENT_1F
10
86000.0
20
29500.0
30
0.0
0
VERTEX
8
05_EQUIPMENT_1F
10
86000.0
20
31700.0
30
0.0
0
VERTEX
8
05_EQUIPMENT_1F
10
81000.0
20
31700.0
30
0.0
0
SEQEND
0
TEXT
8
07_TEXT
10
83500.0
20
30600.0
30
0.0
40
250.0
1
E1-2
72
1
11
83500.0
21
30600.0
31
0.0
0
POLYLINE
8
05_EQUIPMENT_1F
66
1
70
1
0
VERTEX
8
05_EQUIPMENT_1F
10
81000.0
20
35000.0
30
0.0
0
VERTEX
8
05_EQUIPMENT_1F
10
86000.0
20
35000.0
30
0.0
0
VERTEX
8
05_EQUIPMENT_1F
10
86000.0
20
37200.0
30
0.0
0
VERTEX
8
05_EQUIPMENT_1F
10
81000.0
20
37200.0
30
0.0
0
SEQEND
0
TEXT
8
07_TEXT
10
83500.0
20
36100.0
30
0.0
40
250.0
1
E1-1
72
1
11
83500.0
21
36100.0
31
0.0
0
POLYLINE
8
05_EQUIPMENT_1F
66
1
70
1
0
VERTEX
8
05_EQUIPMENT_1F
10
75000.0
20
34000.0
30
0.0
0
VERTEX
8
05_EQUIPMENT_1F
10
79500.0
20
34000.0
30
0.0
0
VERTEX
8
05_EQUIPMENT_1F
10
79500.0
20
38500.0
30
0.0
0
VERTEX
8
05_EQUIPMENT_1F
10
75000.0
20
38500.0
30
0.0
0
SEQEND
0
TEXT
8
07_TEXT
10
77250.0
20
36250.0
30
0.0
40
250.0
1
J1-2
72
1
11
77250.0
21
36250.0
31
0.0
0
POLYLINE
8
05_EQUIPMENT_1F
66
1
70
1
0
VERTEX
8
05_EQUIPMENT_1F
10
66000.0
20
34000.0
30
0.0
0
VERTEX
8
05_EQUIPMENT_1F
10
73500.0
20
34000.0
30
0.0
0
VERTEX
8
05_EQUIPMENT_1F
10
73500.0
20
37500.0
30
0.0
0
VERTEX
8
05_EQUIPMENT_1F
10
66000.0
20
37500.0
30
0.0
0
SEQEND
0
TEXT
8
07_TEXT
10
69750.0
20
35750.0
30
0.0
40
250.0
1
C1-2
72
1
11
69750.0
21
35750.0
31
0.0
0
POLYLINE
8
05_EQUIPMENT_1F
66
1
70
1
0
VERTEX
8
05_EQUIPMENT_1F
10
58500.0
20
34000.0
30
0.0
0
VERTEX
8
05_EQUIPMENT_1F
10
62700.0
20
34000.0
30
0.0
0
VERTEX
8
05_EQUIPMENT_1F
10
62700.0
20
38000.0
30
0.0
0
VERTEX
8
05_EQUIPMENT_1F
10
58500.0
20
38000.0
30
0.0
0
SEQEND
0
TEXT
8
07_TEXT
10
60600.0
20
36000.0
30
0.0
40
250.0
1
L4-1
72
1
11
60600.0
21
36000.0
31
0.0
0
POLYLINE
8
05_EQUIPMENT_1F
66
1
70
1
0
VERTEX
8
05_EQUIPMENT_1F
10
59500.0
20
39500.0
30
0.0
0
VERTEX
8
05_EQUIPMENT_1F
10
64000.0
20
39500.0
30
0.0
0
VERTEX
8
05_EQUIPMENT_1F
10
64000.0
20
44000.0
30
0.0
0
VERTEX
8
05_EQUIPMENT_1F
10
59500.0
20
44000.0
30
0.0
0
SEQEND
0
TEXT
8
07_TEXT
10
61750.0
20
41750.0
30
0.0
40
250.0
1
J1-3
72
1
11
61750.0
21
41750.0
31
0.0
0
POLYLINE
8
05_EQUIPMENT_1F
66
1
70
1
0
VERTEX
8
05_EQUIPMENT_1F
10
55000.0
20
39500.0
30
0.0
0
VERTEX
8
05_EQUIPMENT_1F
10
58800.0
20
39500.0
30
0.0
0
VERTEX
8
05_EQUIPMENT_1F
10
58800.0
20
43500.0
30
0.0
0
VERTEX
8
05_EQUIPMENT_1F
10
55000.0
20
43500.0
30
0.0
0
SEQEND
0
TEXT
8
07_TEXT
10
56900.0
20
41500.0
30
0.0
40
250.0
1
Die Cut
72
1
11
56900.0
21
41500.0
31
0.0
0
POLYLINE
8
05_EQUIPMENT_1F
66
1
70
1
0
VERTEX
8
05_EQUIPMENT_1F
10
65500.0
20
39500.0
30
0.0
0
VERTEX
8
05_EQUIPMENT_1F
10
83500.0
20
39500.0
30
0.0
0
VERTEX
8
05_EQUIPMENT_1F
10
83500.0
20
43000.0
30
0.0
0
VERTEX
8
05_EQUIPMENT_1F
10
65500.0
20
43000.0
30
0.0
0
SEQEND
0
TEXT
8
07_TEXT
10
74500.0
20
41250.0
30
0.0
40
250.0
1
A1-2
72
1
11
74500.0
21
41250.0
31
0.0
0
POLYLINE
8
05_EQUIPMENT_1F
66
1
70
1
0
VERTEX
8
05_EQUIPMENT_1F
10
90500.0
20
42000.0
30
0.0
0
VERTEX
8
05_EQUIPMENT_1F
10
95000.0
20
42000.0
30
0.0
0
VERTEX
8
05_EQUIPMENT_1F
10
95000.0
20
51500.0
30
0.0
0
VERTEX
8
05_EQUIPMENT_1F
10
90500.0
20
51500.0
30
0.0
0
SEQEND
0
TEXT
8
07_TEXT
10
92750.0
20
46750.0
30
0.0
40
250.0
1
D1-1
72
1
11
92750.0
21
46750.0
31
0.0
0
POLYLINE
8
05_EQUIPMENT_1F
66
1
70
1
0
VERTEX
8
05_EQUIPMENT_1F
10
95500.0
20
42000.0
30
0.0
0
VERTEX
8
05_EQUIPMENT_1F
10
100000.0
20
42000.0
30
0.0
0
VERTEX
8
05_EQUIPMENT_1F
10
100000.0
20
51500.0
30
0.0
0
VERTEX
8
05_EQUIPMENT_1F
10
95500.0
20
51500.0
30
0.0
0
SEQEND
0
TEXT
8
07_TEXT
10
97750.0
20
46750.0
30
0.0
40
250.0
1
Welding
72
1
11
97750.0
21
46750.0
31
0.0
0
POLYLINE
8
05_EQUIPMENT_1F
66
1
70
1
0
VERTEX
8
05_EQUIPMENT_1F
10
89500.0
20
28500.0
30
0.0
0
VERTEX
8
05_EQUIPMENT_1F
10
91900.0
20
28500.0
30
0.0
0
VERTEX
8
05_EQUIPMENT_1F
10
91900.0
20
31300.0
30
0.0
0
VERTEX
8
05_EQUIPMENT_1F
10
89500.0
20
31300.0
30
0.0
0
SEQEND
0
TEXT
8
07_TEXT
10
90700.0
20
29900.0
30
0.0
40
250.0
1
K1-1
72
1
11
90700.0
21
29900.0
31
0.0
0
POLYLINE
8
05_EQUIPMENT_1F
66
1
70
1
0
VERTEX
8
05_EQUIPMENT_1F
10
92500.0
20
28500.0
30
0.0
0
VERTEX
8
05_EQUIPMENT_1F
10
94900.0
20
28500.0
30
0.0
0
VERTEX
8
05_EQUIPMENT_1F
10
94900.0
20
31300.0
30
0.0
0
VERTEX
8
05_EQUIPMENT_1F
10
92500.0
20
31300.0
30
0.0
0
SEQEND
0
TEXT
8
07_TEXT
10
93700.0
20
29900.0
30
0.0
40
250.0
1
K1-2
72
1
11
93700.0
21
29900.0
31
0.0
0
POLYLINE
8
05_EQUIPMENT_1F
66
1
70
1
0
VERTEX
8
05_EQUIPMENT_1F
10
92000.0
20
32000.0
30
0.0
0
VERTEX
8
05_EQUIPMENT_1F
10
94400.0
20
32000.0
30
0.0
0
VERTEX
8
05_EQUIPMENT_1F
10
94400.0
20
34800.0
30
0.0
0
VERTEX
8
05_EQUIPMENT_1F
10
92000.0
20
34800.0
30
0.0
0
SEQEND
0
TEXT
8
07_TEXT
10
93200.0
20
33400.0
30
0.0
40
250.0
1
I1-1
72
1
11
93200.0
21
33400.0
31
0.0
0
POLYLINE
8
05_EQUIPMENT_1F
66
1
70
1
0
VERTEX
8
05_EQUIPMENT_1F
10
95500.0
20
32000.0
30
0.0
0
VERTEX
8
05_EQUIPMENT_1F
10
97900.0
20
32000.0
30
0.0
0
VERTEX
8
05_EQUIPMENT_1F
10
97900.0
20
34800.0
30
0.0
0
VERTEX
8
05_EQUIPMENT_1F
10
95500.0
20
34800.0
30
0.0
0
SEQEND
0
TEXT
8
07_TEXT
10
96700.0
20
33400.0
30
0.0
40
250.0
1
I1-4
72
1
11
96700.0
21
33400.0
31
0.0
0
POLYLINE
8
05_EQUIPMENT_1F
66
1
70
1
0
VERTEX
8
05_EQUIPMENT_1F
10
95500.0
20
28500.0
30
0.0
0
VERTEX
8
05_EQUIPMENT_1F
10
97900.0
20
28500.0
30
0.0
0
VERTEX
8
05_EQUIPMENT_1F
10
97900.0
20
31300.0
30
0.0
0
VERTEX
8
05_EQUIPMENT_1F
10
95500.0
20
31300.0
30
0.0
0
SEQEND
0
TEXT
8
07_TEXT
10
96700.0
20
29900.0
30
0.0
40
250.0
1
I1-5
72
1
11
96700.0
21
29900.0
31
0.0
0
POLYLINE
8
05_EQUIPMENT_1F
66
1
70
1
0
VERTEX
8
05_EQUIPMENT_1F
10
81000.0
20
55500.0
30
0.0
0
VERTEX
8
05_EQUIPMENT_1F
10
100500.0
20
55500.0
30
0.0
0
VERTEX
8
05_EQUIPMENT_1F
10
100500.0
20
67000.0
30
0.0
0
VERTEX
8
05_EQUIPMENT_1F
10
81000.0
20
67000.0
30
0.0
0
SEQEND
0
TEXT
8
07_TEXT
10
90750.0
20
61250.0
30
0.0
40
250.0
1
CNC Room
72
1
11
90750.0
21
61250.0
31
0.0
0
POLYLINE
8
05_EQUIPMENT_1F
66
1
70
1
0
VERTEX
8
05_EQUIPMENT_1F
10
90500.0
20
62000.0
30
0.0
0
VERTEX
8
05_EQUIPMENT_1F
10
92900.0
20
62000.0
30
0.0
0
VERTEX
8
05_EQUIPMENT_1F
10
92900.0
20
64400.0
30
0.0
0
VERTEX
8
05_EQUIPMENT_1F
10
90500.0
20
64400.0
30
0.0
0
SEQEND
0
TEXT
8
07_TEXT
10
91700.0
20
63200.0
30
0.0
40
250.0
1
P1-1
72
1
11
91700.0
21
63200.0
31
0.0
0
POLYLINE
8
05_EQUIPMENT_1F
66
1
70
1
0
VERTEX
8
05_EQUIPMENT_1F
10
93800.0
20
62000.0
30
0.0
0
VERTEX
8
05_EQUIPMENT_1F
10
96200.0
20
62000.0
30
0.0
0
VERTEX
8
05_EQUIPMENT_1F
10
96200.0
20
64400.0
30
0.0
0
VERTEX
8
05_EQUIPMENT_1F
10
93800.0
20
64400.0
30
0.0
0
SEQEND
0
TEXT
8
07_TEXT
10
95000.0
20
63200.0
30
0.0
40
250.0
1
P1-2
72
1
11
95000.0
21
63200.0
31
0.0
0
POLYLINE
8
05_EQUIPMENT_1F
66
1
70
1
0
VERTEX
8
05_EQUIPMENT_1F
10
97000.0
20
62000.0
30
0.0
0
VERTEX
8
05_EQUIPMENT_1F
10
99400.0
20
62000.0
30
0.0
0
VERTEX
8
05_EQUIPMENT_1F
10
99400.0
20
64400.0
30
0.0
0
VERTEX
8
05_EQUIPMENT_1F
10
97000.0
20
64400.0
30
0.0
0
SEQEND
0
TEXT
8
07_TEXT
10
98200.0
20
63200.0
30
0.0
40
250.0
1
P1-3
72
1
11
98200.0
21
63200.0
31
0.0
0
POLYLINE
8
05_EQUIPMENT_1F
66
1
70
1
0
VERTEX
8
05_EQUIPMENT_1F
10
97000.0
20
58500.0
30
0.0
0
VERTEX
8
05_EQUIPMENT_1F
10
99400.0
20
58500.0
30
0.0
0
VERTEX
8
05_EQUIPMENT_1F
10
99400.0
20
60900.0
30
0.0
0
VERTEX
8
05_EQUIPMENT_1F
10
97000.0
20
60900.0
30
0.0
0
SEQEND
0
TEXT
8
07_TEXT
10
98200.0
20
59700.0
30
0.0
40
250.0
1
P1-4
72
1
11
98200.0
21
59700.0
31
0.0
0
POLYLINE
8
05_EQUIPMENT_1F
66
1
70
1
0
VERTEX
8
05_EQUIPMENT_1F
10
97000.0
20
55200.0
30
0.0
0
VERTEX
8
05_EQUIPMENT_1F
10
99400.0
20
55200.0
30
0.0
0
VERTEX
8
05_EQUIPMENT_1F
10
99400.0
20
57600.0
30
0.0
0
VERTEX
8
05_EQUIPMENT_1F
10
97000.0
20
57600.0
30
0.0
0
SEQEND
0
TEXT
8
07_TEXT
10
98200.0
20
56400.0
30
0.0
40
250.0
1
P1-5
72
1
11
98200.0
21
56400.0
31
0.0
0
POLYLINE
8
05_EQUIPMENT_1F
66
1
70
1
0
VERTEX
8
05_EQUIPMENT_1F
10
-5000.0
20
55500.0
30
0.0
0
VERTEX
8
05_EQUIPMENT_1F
10
-500.0
20
55500.0
30
0.0
0
VERTEX
8
05_EQUIPMENT_1F
10
-500.0
20
62000.0
30
0.0
0
VERTEX
8
05_EQUIPMENT_1F
10
-5000.0
20
62000.0
30
0.0
0
SEQEND
0
TEXT
8
07_TEXT
10
-2750.0
20
58750.0
30
0.0
40
250.0
1
Guard
72
1
11
-2750.0
21
58750.0
31
0.0
0
POLYLINE
8
05_EQUIPMENT_1F
66
1
70
1
0
VERTEX
8
05_EQUIPMENT_1F
10
-5500.0
20
42000.0
30
0.0
0
VERTEX
8
05_EQUIPMENT_1F
10
-500.0
20
42000.0
30
0.0
0
VERTEX
8
05_EQUIPMENT_1F
10
-500.0
20
54000.0
30
0.0
0
VERTEX
8
05_EQUIPMENT_1F
10
-5500.0
20
54000.0
30
0.0
0
SEQEND
0
TEXT
8
07_TEXT
10
-3000.0
20
48000.0
30
0.0
40
250.0
1
GATE
72
1
11
-3000.0
21
48000.0
31
0.0
0
POLYLINE
8
05_EQUIPMENT_1F
66
1
70
1
0
VERTEX
8
05_EQUIPMENT_1F
10
42000.0
20
46500.0
30
0.0
0
VERTEX
8
05_EQUIPMENT_1F
10
53500.0
20
46500.0
30
0.0
0
VERTEX
8
05_EQUIPMENT_1F
10
53500.0
20
49500.0
30
0.0
0
VERTEX
8
05_EQUIPMENT_1F
10
42000.0
20
49500.0
30
0.0
0
SEQEND
0
TEXT
8
07_TEXT
10
47750.0
20
48000.0
30
0.0
40
250.0
1
PL-1
72
1
11
47750.0
21
48000.0
31
0.0
0
POLYLINE
8
05_EQUIPMENT_1F
66
1
70
1
0
VERTEX
8
05_EQUIPMENT_1F
10
58000.0
20
46500.0
30
0.0
0
VERTEX
8
05_EQUIPMENT_1F
10
70500.0
20
46500.0
30
0.0
0
VERTEX
8
05_EQUIPMENT_1F
10
70500.0
20
49500.0
30
0.0
0
VERTEX
8
05_EQUIPMENT_1F
10
58000.0
20
49500.0
30
0.0
0
SEQEND
0
TEXT
8
07_TEXT
10
64250.0
20
48000.0
30
0.0
40
250.0
1
PL-2
72
1
11
64250.0
21
48000.0
31
0.0
0
POLYLINE
8
05_EQUIPMENT_1F
66
1
70
1
0
VERTEX
8
05_EQUIPMENT_1F
10
73000.0
20
46500.0
30
0.0
0
VERTEX
8
05_EQUIPMENT_1F
10
81000.0
20
46500.0
30
0.0
0
VERTEX
8
05_EQUIPMENT_1F
10
81000.0
20
49500.0
30
0.0
0
VERTEX
8
05_EQUIPMENT_1F
10
73000.0
20
49500.0
30
0.0
0
SEQEND
0
TEXT
8
07_TEXT
10
77000.0
20
48000.0
30
0.0
40
250.0
1
PL-3
72
1
11
77000.0
21
48000.0
31
0.0
0
POLYLINE
8
12_ARCH_DOORS_WINDOWS
66
1
70
1
0
VERTEX
8
12_ARCH_DOORS_WINDOWS
10
35000.0
20
32000.0
30
0.0
0
VERTEX
8
12_ARCH_DOORS_WINDOWS
10
35900.0
20
32000.0
30
0.0
0
VERTEX
8
12_ARCH_DOORS_WINDOWS
10
35900.0
20
32150.0
30
0.0
0
VERTEX
8
12_ARCH_DOORS_WINDOWS
10
35000.0
20
32150.0
30
0.0
0
SEQEND
0
TEXT
8
07_TEXT
10
35450.0
20
32075.0
30
0.0
40
250.0
1
DOOR-090
72
1
11
35450.0
21
32075.0
31
0.0
0
POLYLINE
8
12_ARCH_DOORS_WINDOWS
66
1
70
1
0
VERTEX
8
12_ARCH_DOORS_WINDOWS
10
0.0
20
36000.0
30
0.0
0
VERTEX
8
12_ARCH_DOORS_WINDOWS
10
4000.0
20
36000.0
30
0.0
0
VERTEX
8
12_ARCH_DOORS_WINDOWS
10
4000.0
20
36350.0
30
0.0
0
VERTEX
8
12_ARCH_DOORS_WINDOWS
10
0.0
20
36350.0
30
0.0
0
SEQEND
0
TEXT
8
07_TEXT
10
2000.0
20
36175.0
30
0.0
40
250.0
1
ROLL-400
72
1
11
2000.0
21
36175.0
31
0.0
0
POLYLINE
8
13_FURNITURE
66
1
70
1
0
VERTEX
8
13_FURNITURE
10
38500.0
20
32000.0
30
0.0
0
VERTEX
8
13_FURNITURE
10
42100.0
20
32000.0
30
0.0
0
VERTEX
8
13_FURNITURE
10
42100.0
20
33400.0
30
0.0
0
VERTEX
8
13_FURNITURE
10
38500.0
20
33400.0
30
0.0
0
SEQEND
0
TEXT
8
07_TEXT
10
40300.0
20
32700.0
30
0.0
40
250.0
1
CONF-08
72
1
11
40300.0
21
32700.0
31
0.0
0
POLYLINE
8
12_ARCH_DOORS_WINDOWS
66
1
70
1
0
VERTEX
8
12_ARCH_DOORS_WINDOWS
10
39000.0
20
39000.0
30
0.0
0
VERTEX
8
12_ARCH_DOORS_WINDOWS
10
40500.0
20
39000.0
30
0.0
0
VERTEX
8
12_ARCH_DOORS_WINDOWS
10
40500.0
20
39200.0
30
0.0
0
VERTEX
8
12_ARCH_DOORS_WINDOWS
10
39000.0
20
39200.0
30
0.0
0
SEQEND
0
TEXT
8
07_TEXT
10
39750.0
20
39100.0
30
0.0
40
250.0
1
WIN-150
72
1
11
39750.0
21
39100.0
31
0.0
0
POLYLINE
8
05_EQUIPMENT_1F
66
1
70
1
0
VERTEX
8
05_EQUIPMENT_1F
10
1500.0
20
10500.0
30
0.0
0
VERTEX
8
05_EQUIPMENT_1F
10
7000.0
20
10500.0
30
0.0
0
VERTEX
8
05_EQUIPMENT_1F
10
7000.0
20
12300.0
30
0.0
0
VERTEX
8
05_EQUIPMENT_1F
10
1500.0
20
12300.0
30
0.0
0
SEQEND
0
TEXT
8
07_TEXT
10
4250.0
20
11400.0
30
0.0
40
250.0
1
RK-B1
72
1
11
4250.0
21
11400.0
31
0.0
0
POLYLINE
8
05_EQUIPMENT_1F
66
1
70
1
0
VERTEX
8
05_EQUIPMENT_1F
10
8500.0
20
10500.0
30
0.0
0
VERTEX
8
05_EQUIPMENT_1F
10
14000.0
20
10500.0
30
0.0
0
VERTEX
8
05_EQUIPMENT_1F
10
14000.0
20
12300.0
30
0.0
0
VERTEX
8
05_EQUIPMENT_1F
10
8500.0
20
12300.0
30
0.0
0
SEQEND
0
TEXT
8
07_TEXT
10
11250.0
20
11400.0
30
0.0
40
250.0
1
RK-B2
72
1
11
11250.0
21
11400.0
31
0.0
0
POLYLINE
8
05_EQUIPMENT_1F
66
1
70
1
0
VERTEX
8
05_EQUIPMENT_1F
10
1500.0
20
14500.0
30
0.0
0
VERTEX
8
05_EQUIPMENT_1F
10
7000.0
20
14500.0
30
0.0
0
VERTEX
8
05_EQUIPMENT_1F
10
7000.0
20
16300.0
30
0.0
0
VERTEX
8
05_EQUIPMENT_1F
10
1500.0
20
16300.0
30
0.0
0
SEQEND
0
TEXT
8
07_TEXT
10
4250.0
20
15400.0
30
0.0
40
250.0
1
RK-B3
72
1
11
4250.0
21
15400.0
31
0.0
0
POLYLINE
8
05_EQUIPMENT_1F
66
1
70
1
0
VERTEX
8
05_EQUIPMENT_1F
10
8500.0
20
14500.0
30
0.0
0
VERTEX
8
05_EQUIPMENT_1F
10
14000.0
20
14500.0
30
0.0
0
VERTEX
8
05_EQUIPMENT_1F
10
14000.0
20
16300.0
30
0.0
0
VERTEX
8
05_EQUIPMENT_1F
10
8500.0
20
16300.0
30
0.0
0
SEQEND
0
TEXT
8
07_TEXT
10
11250.0
20
15400.0
30
0.0
40
250.0
1
RK-B4
72
1
11
11250.0
21
15400.0
31
0.0
0
POLYLINE
8
05_EQUIPMENT_1F
66
1
70
1
0
VERTEX
8
05_EQUIPMENT_1F
10
21000.0
20
20500.0
30
0.0
0
VERTEX
8
05_EQUIPMENT_1F
10
27000.0
20
20500.0
30
0.0
0
VERTEX
8
05_EQUIPMENT_1F
10
27000.0
20
22900.0
30
0.0
0
VERTEX
8
05_EQUIPMENT_1F
10
21000.0
20
22900.0
30
0.0
0
SEQEND
0
TEXT
8
07_TEXT
10
24000.0
20
21700.0
30
0.0
40
250.0
1
PL-A1
72
1
11
24000.0
21
21700.0
31
0.0
0
POLYLINE
8
05_EQUIPMENT_1F
66
1
70
1
0
VERTEX
8
05_EQUIPMENT_1F
10
28000.0
20
20500.0
30
0.0
0
VERTEX
8
05_EQUIPMENT_1F
10
34000.0
20
20500.0
30
0.0
0
VERTEX
8
05_EQUIPMENT_1F
10
34000.0
20
22900.0
30
0.0
0
VERTEX
8
05_EQUIPMENT_1F
10
28000.0
20
22900.0
30
0.0
0
SEQEND
0
TEXT
8
07_TEXT
10
31000.0
20
21700.0
30
0.0
40
250.0
1
PL-A2
72
1
11
31000.0
21
21700.0
31
0.0
0
POLYLINE
8
05_EQUIPMENT_1F
66
1
70
1
0
VERTEX
8
05_EQUIPMENT_1F
10
21000.0
20
24500.0
30
0.0
0
VERTEX
8
05_EQUIPMENT_1F
10
27000.0
20
24500.0
30
0.0
0
VERTEX
8
05_EQUIPMENT_1F
10
27000.0
20
26900.0
30
0.0
0
VERTEX
8
05_EQUIPMENT_1F
10
21000.0
20
26900.0
30
0.0
0
SEQEND
0
TEXT
8
07_TEXT
10
24000.0
20
25700.0
30
0.0
40
250.0
1
PL-A3
72
1
11
24000.0
21
25700.0
31
0.0
0
POLYLINE
8
05_EQUIPMENT_1F
66
1
70
1
0
VERTEX
8
05_EQUIPMENT_1F
10
28000.0
20
24500.0
30
0.0
0
VERTEX
8
05_EQUIPMENT_1F
10
34000.0
20
24500.0
30
0.0
0
VERTEX
8
05_EQUIPMENT_1F
10
34000.0
20
26900.0
30
0.0
0
VERTEX
8
05_EQUIPMENT_1F
10
28000.0
20
26900.0
30
0.0
0
SEQEND
0
TEXT
8
07_TEXT
10
31000.0
20
25700.0
30
0.0
40
250.0
1
PL-A4
72
1
11
31000.0
21
25700.0
31
0.0
0
POLYLINE
8
05_EQUIPMENT_1F
66
1
70
1
0
VERTEX
8
05_EQUIPMENT_1F
10
2000.0
20
20000.0
30
0.0
0
VERTEX
8
05_EQUIPMENT_1F
10
7000.0
20
20000.0
30
0.0
0
VERTEX
8
05_EQUIPMENT_1F
10
7000.0
20
22500.0
30
0.0
0
VERTEX
8
05_EQUIPMENT_1F
10
2000.0
20
22500.0
30
0.0
0
SEQEND
0
TEXT
8
07_TEXT
10
4500.0
20
21250.0
30
0.0
40
250.0
1
EX-1
72
1
11
4500.0
21
21250.0
31
0.0
0
POLYLINE
8
05_EQUIPMENT_1F
66
1
70
1
0
VERTEX
8
05_EQUIPMENT_1F
10
8500.0
20
20000.0
30
0.0
0
VERTEX
8
05_EQUIPMENT_1F
10
13500.0
20
20000.0
30
0.0
0
VERTEX
8
05_EQUIPMENT_1F
10
13500.0
20
22500.0
30
0.0
0
VERTEX
8
05_EQUIPMENT_1F
10
8500.0
20
22500.0
30
0.0
0
SEQEND
0
TEXT
8
07_TEXT
10
11000.0
20
21250.0
30
0.0
40
250.0
1
EX-2
72
1
11
11000.0
21
21250.0
31
0.0
0
POLYLINE
8
05_EQUIPMENT_1F
66
1
70
1
0
VERTEX
8
05_EQUIPMENT_1F
10
15200.0
20
20000.0
30
0.0
0
VERTEX
8
05_EQUIPMENT_1F
10
18000.0
20
20000.0
30
0.0
0
VERTEX
8
05_EQUIPMENT_1F
10
18000.0
20
22800.0
30
0.0
0
VERTEX
8
05_EQUIPMENT_1F
10
15200.0
20
22800.0
30
0.0
0
SEQEND
0
TEXT
8
07_TEXT
10
16600.0
20
21400.0
30
0.0
40
250.0
1
STG-2F
72
1
11
16600.0
21
21400.0
31
0.0
0
ENDSEC
0
EOF